<?xml version="1.0" encoding="UTF-8" standalone="no"?>
<!-- Created with Inkscape (http://www.inkscape.org/) -->

<svg
   xmlns:dc="http://purl.org/dc/elements/1.1/"
   xmlns:cc="http://creativecommons.org/ns#"
   xmlns:rdf="http://www.w3.org/1999/02/22-rdf-syntax-ns#"
   xmlns:svg="http://www.w3.org/2000/svg"
   xmlns="http://www.w3.org/2000/svg"
   xmlns:xlink="http://www.w3.org/1999/xlink"
   xmlns:sodipodi="http://sodipodi.sourceforge.net/DTD/sodipodi-0.dtd"
   xmlns:inkscape="http://www.inkscape.org/namespaces/inkscape"
   width="210mm"
   height="297mm"
   viewBox="0 0 210 297"
   version="1.1"
   id="svg8"
   inkscape:version="0.92.4 (5da689c313, 2019-01-14)"
   sodipodi:docname="macha-logo.svg"
   inkscape:export-filename="C:\Users\HP-PD\Documents\macha-logo.png"
   inkscape:export-xdpi="95.903992"
   inkscape:export-ydpi="95.903992">
  <defs
     id="defs2">
    <linearGradient
       inkscape:collect="always"
       id="linearGradient909">
      <stop
         style="stop-color:#000000;stop-opacity:0.6"
         offset="0"
         id="stop905" />
      <stop
         id="stop913"
         offset="0.63373142"
         style="stop-color:#000000;stop-opacity:0.86" />
      <stop
         style="stop-color:#000000;stop-opacity:0.94"
         offset="1"
         id="stop907" />
    </linearGradient>
    <filter
       inkscape:collect="always"
       style="color-interpolation-filters:sRGB"
       id="filter877"
       x="-0.11852928"
       width="1.2370586"
       y="-0.37391888"
       height="1.7478378">
      <feGaussianBlur
         inkscape:collect="always"
         stdDeviation="9.9573632"
         id="feGaussianBlur879" />
    </filter>
    <filter
       inkscape:collect="always"
       style="color-interpolation-filters:sRGB"
       id="filter885"
       x="-0.07901951"
       width="1.158039"
       y="-0.24927932"
       height="1.4985586">
      <feGaussianBlur
         inkscape:collect="always"
         stdDeviation="6.63824"
         id="feGaussianBlur887" />
    </filter>
    <filter
       inkscape:collect="always"
       style="color-interpolation-filters:sRGB"
       id="filter893"
       x="-0.023705855"
       width="1.0474117"
       y="-0.074783779"
       height="1.1495676">
      <feGaussianBlur
         inkscape:collect="always"
         stdDeviation="1.9914716"
         id="feGaussianBlur895" />
    </filter>
    <radialGradient
       inkscape:collect="always"
       xlink:href="#linearGradient909"
       id="radialGradient911"
       cx="-96.572914"
       cy="51.466663"
       fx="-96.572914"
       fy="51.466663"
       r="105.83334"
       gradientUnits="userSpaceOnUse"
       gradientTransform="matrix(1.25,0,0,1.25,50.848786,-39.324994)" />
  </defs>
  <sodipodi:namedview
     id="base"
     pagecolor="#aaaaaa"
     bordercolor="#666666"
     borderopacity="1.0"
     inkscape:pageopacity="0"
     inkscape:pageshadow="2"
     inkscape:zoom="0.48194215"
     inkscape:cx="-213.18396"
     inkscape:cy="975.71361"
     inkscape:document-units="px"
     inkscape:current-layer="layer1"
     showgrid="false"
     showborder="false"
     inkscape:window-width="1920"
     inkscape:window-height="1051"
     inkscape:window-x="-9"
     inkscape:window-y="-9"
     inkscape:window-maximized="1"
     inkscape:snap-global="false" />
  <metadata
     id="metadata5">
    <rdf:RDF>
      <cc:Work
         rdf:about="">
        <dc:format>image/svg+xml</dc:format>
        <dc:type
           rdf:resource="http://purl.org/dc/dcmitype/StillImage" />
        <dc:title />
      </cc:Work>
    </rdf:RDF>
  </metadata>
  <g
     inkscape:label="Layer 1"
     inkscape:groupmode="layer"
     id="layer1">
    <rect
       style="fill:#7a46f9;fill-opacity:1;stroke-width:0.5303219"
       id="rect848"
       width="264.58334"
       height="264.58334"
       x="-202.40625"
       y="-107.28333" />
    <rect
       y="-107.28333"
       x="-202.15901"
       height="264.58334"
       width="264.58334"
       id="rect903"
       style="fill:url(#radialGradient911);fill-opacity:1;stroke-width:0.5303219" />
    <path
       style="font-style:normal;font-variant:normal;font-weight:bold;font-stretch:normal;font-size:96.39656067px;line-height:1.25;font-family:'Learning Curve';-inkscape-font-specification:'Learning Curve, Bold';font-variant-ligatures:normal;font-variant-caps:normal;font-variant-numeric:normal;font-feature-settings:normal;text-align:start;letter-spacing:0px;word-spacing:0px;writing-mode:lr-tb;text-anchor:start;fill:#7a46f9;fill-opacity:1;stroke:#7a46f9;stroke-width:5.29166651;stroke-linecap:round;stroke-linejoin:round;stroke-miterlimit:4;stroke-dasharray:none;stroke-opacity:1;filter:url(#filter877)"
       d="m -15.727901,-13.297314 c -0.8997,0 -1.99203,0.38586 -3.27732,1.15704 -1.22102,0.771171 -2.37757,1.960102 -3.47007,3.5667115 -1.28528,2.0564601 -3.11697,5.5908602 -5.49475,10.603482 -2.31352,5.0126183 -5.10908,11.5034065 -8.38657,19.4721965 -1.34955,1.54234 -2.82775,3.2132 -4.43435,5.01261 -1.56292,1.68795 -3.24983,3.62361 -5.05603,5.7981 -0.0677,0.0546 -0.13471,0.11249 -0.2005,0.17828 -3.40601,3.98439 -6.78011,7.29427 -10.12186,9.92911 -3.27749,2.57058 -6.61922,3.85558 -10.02523,3.85558 -2.6991,0 -4.04833,-1.60664 -4.04833,-4.81986 0,-2.31352 0.73884,-5.01249 2.21692,-8.09718 1.47808,-3.08469 3.63089,-5.97633 6.45852,-8.67544 1.47808,-1.47808 2.85968,-2.21744 4.14496,-2.21744 0.77118,0 1.28549,0.32164 1.54255,0.96429 0.32132,0.57838 0.48214,1.22062 0.48214,1.92753 0,0.12852 -0.0324,0.22512 -0.0966,0.28938 v 0.28939 c -0.0643,0.12853 -0.0961,0.3212 -0.0961,0.57826 v 0.6749 c 0,0.51412 0.16031,0.96369 0.48163,1.34927 0.38558,0.32132 0.86753,0.48214 1.44591,0.48214 0.89969,0 1.44638,-0.38586 1.63917,-1.15704 0.25706,-0.77117 0.38551,-1.51001 0.38551,-2.21692 0,-1.99219 -0.45009,-3.63069 -1.34979,-4.91598 -0.8997,-1.34954 -2.3779,-2.02468 -4.43436,-2.02468 -2.24925,0 -4.5305,1.06048 -6.84402,3.1812 -2.95616,2.82764 -5.30165,6.04092 -7.03678,9.63973 -0.0999,0.20345 -0.19629,0.40575 -0.29042,0.60771 -0.11989,0.0931 -0.25125,0.20939 -0.39791,0.35605 -0.57838,0.64265 -1.54226,1.73549 -2.891822,3.27784 -1.34955,1.47808 -2.79589,2.98813 -4.33823,4.53047 -1.54235,1.54235 -3.05239,2.92394 -4.53047,4.14497 -1.41382,1.15676 -2.50615,1.73529 -3.27732,1.73529 -0.57838,0 -1.02847,-0.22504 -1.34979,-0.67489 -0.32132,-0.51412 -0.48163,-1.1245 -0.48163,-1.83142 0,-0.8997 0.16031,-2.0244 0.48163,-3.37395 0.38559,-1.41381 0.86752,-2.85964 1.4459,-4.33772 0.83544,-1.41381 1.67087,-2.86015 2.50631,-4.33824 0.83544,-1.47808 1.57479,-2.85968 2.21744,-4.14496 0.70691,-1.34956 1.28492,-2.53848 1.73477,-3.56671 0.51412,-1.09249 0.86761,-1.89556 1.0604,-2.40967 0.0643,-0.12854 0.12849,-0.25698 0.19276,-0.38551 0.0643,-0.19279 0.0966,-0.38546 0.0966,-0.57826 0,-0.32132 -0.16082,-0.61058 -0.48214,-0.86765 -0.25706,-0.25705 -0.51396,-0.45024 -0.77101,-0.57877 -0.19279,-0.12853 -0.80318,-0.3212 -1.83141,-0.57826 -0.96397,-0.32132 -2.21712,-0.48162 -3.75946,-0.48162 -2.95617,0 -5.91255,0.73883 -8.86871,2.21691 -2.8919,1.47808 -5.494277,3.37399 -7.807787,5.68751 -2.0162,2.01619 -3.69059,4.25214 -5.02347,6.7076 -3.92139,4.41983 -7.15505,7.74598 -9.69553,9.9689 -2.57058,2.24926 -4.36989,3.37396 -5.39812,3.37396 -0.12853,0 -0.19276,-0.16082 -0.19276,-0.48214 0,-1.02824 0.3535,-2.47406 1.0604,-4.33772 0.70691,-1.86367 1.44575,-3.69536 2.21692,-5.49476 l 0.57878,-1.34927 c 0.8997,-2.12073 1.67091,-4.11323 2.31355,-5.9769 0.70691,-1.86366 1.0604,-3.50216 1.0604,-4.91597 0,-1.41383 -0.41771,-2.57089 -1.25315,-3.47059 -0.77117,-0.8997 -1.9601,-1.34927 -3.56671,-1.34927 -2.6991,0 -5.36622,1.09233 -8.00106,3.27731 -2.63484,2.12073 -5.17351,4.75548 -7.61555,7.90443 0.12852,-0.77117 0.22512,-1.47816 0.28938,-2.1208 0.0643,-0.70691 0.0961,-1.41338 0.0961,-2.12028 0,-0.77118 -0.0961,-1.54238 -0.28887,-2.31356 -0.12853,-0.83543 -0.38543,-1.60665 -0.77101,-2.31355 -0.38559,-0.70691 -0.93227,-1.28545 -1.63918,-1.73529 -0.64264,-0.44986 -1.4457,-0.6749 -2.40967,-0.6749 -1.73514,0 -3.56682,0.77121 -5.49476,2.31356 -1.92793,1.54234 -3.82384,3.47011 -5.6875,5.78362 0.0643,-0.32132 0.0966,-0.64245 0.0966,-0.96377 0.0643,-0.38558 0.0966,-0.73908 0.0966,-1.0604 0,-1.34955 -0.38587,-2.63455 -1.15704,-3.85558 -0.70691,-1.28528 -1.89583,-1.92804 -3.56671,-1.92804 -1.60661,0 -3.14902,0.67461 -4.6271,2.02417 -0.44985,0.44984 -1.28529,1.34951 -2.50631,2.69905 -1.15676,1.28529 -2.50599,2.8277 -4.04833,4.62711 -0.685,0.80413 -1.39588,1.64236 -2.12235,2.50166 -2.43845,2.38375 -0.014,5.65927 2.08514,3.38429 1.25149,-1.46595 2.43481,-2.86369 3.50728,-4.15065 1.34955,-1.60662 2.53848,-2.98821 3.56671,-4.14497 1.02823,-1.15675 1.73521,-1.89611 2.1208,-2.21744 0.70691,-0.7069 1.34967,-1.0604 1.92805,-1.0604 0.44985,0 0.7386,0.25742 0.86713,0.77153 0.12852,0.44986 0.19275,0.9318 0.19275,1.44591 0,1.28529 -0.2569,2.73111 -0.77101,4.33772 -0.44985,1.54234 -1.02839,3.18084 -1.7353,4.91598 -0.70691,1.73514 -1.50997,3.47074 -2.40967,5.20588 -0.83544,1.67088 -1.6385,3.21278 -2.40967,4.62659 -0.51412,0.70691 -0.93183,1.41389 -1.25316,2.1208 -0.32132,0.64264 -0.48214,1.25304 -0.48214,1.83142 0,0.38558 0.12845,0.77144 0.38551,1.15703 0.32132,0.44985 0.80326,0.6749 1.44591,0.6749 0.32132,0 0.67481,-0.16083 1.0604,-0.48214 0.38558,-0.32133 0.67485,-0.64245 0.86764,-0.96377 0.96397,-1.92793 2.28134,-4.33815 3.95222,-7.23005 1.67087,-2.95616 3.43833,-5.81596 5.302,-8.57932 1.92793,-2.76337 3.82332,-5.10885 5.68699,-7.03678 1.92793,-1.9922 3.63117,-2.98845 5.10925,-2.98845 0.64264,0 1.02799,0.38586 1.15652,1.15704 0.12853,0.77117 0.19275,1.51001 0.19275,2.21691 0,1.86367 -0.32112,4.01648 -0.96376,6.45853 -0.57838,2.44204 -1.253,4.78804 -2.02417,7.03729 -0.25706,0.51411 -0.61055,1.18873 -1.0604,2.02417 -0.44985,0.77117 -0.89994,1.6066 -1.34979,2.5063 -0.44985,0.83544 -0.8352,1.6385 -1.15652,2.40968 -0.32132,0.77117 -0.48214,1.3497 -0.48214,1.73529 0,0.51411 0.16082,0.9642 0.48214,1.34979 0.32132,0.44985 0.83512,0.67438 1.54203,0.67438 0.32132,0 0.73904,-0.12846 1.25315,-0.38551 0.44985,-0.32132 1.06076,-1.31757 1.83193,-2.98845 0.83544,-1.73513 1.67087,-3.72712 2.50631,-5.97638 1.22102,-1.86366 2.60262,-3.85565 4.14496,-5.97638 1.54235,-2.12072 3.14899,-4.08086 4.81986,-5.88026 1.67088,-1.7994 3.30937,-3.27759 4.91598,-4.43435 1.67088,-1.22103 3.18144,-1.83142 4.53099,-1.83142 0.70691,0 1.0604,0.35349 1.0604,1.06041 0,1.22101 -0.38586,2.85952 -1.15703,4.91597 -0.77117,2.05646 -1.57424,3.98475 -2.40967,5.78415 -1.02823,2.24925 -1.89604,4.36968 -2.60295,6.36188 -0.7069,1.92793 -1.0604,3.5988 -1.0604,5.01262 0,1.22102 0.32113,2.24912 0.96377,3.08456 0.64264,0.77118 1.6389,1.15704 2.98845,1.15704 2.4293,0 6.54887,-2.91971 12.34395,-8.73332 -0.0234,0.34147 -0.0351,0.6822 -0.0351,1.02164 0,2.24926 0.57853,4.14465 1.73529,5.687 1.15676,1.47808 2.89185,2.21743 5.20537,2.21743 2.12072,0 4.080857,-0.61039 5.880257,-1.83141 1.86367,-1.28529 3.53453,-2.76348 5.01261,-4.43436 0,1.60662 0.44957,3.05244 1.34927,4.33772 0.89971,1.28529 2.31367,1.92805 4.24161,1.92805 1.92793,0 4.30578,-1.31737 7.13341,-3.95221 1.74898,-1.62974 3.76969,-3.64286 6.05958,-6.03478 -0.0447,0.50698 -0.0698,1.00842 -0.0698,1.50379 0,2.44204 0.610902,4.49877 1.831932,6.16965 1.15675,1.60661 3.05215,2.40967 5.68699,2.40967 2.18499,0 4.27357,-0.41771 6.26576,-1.25316 1.9922,-0.77117 3.92048,-1.83113 5.78415,-3.18068 1.86366,-1.41382 3.69483,-3.02046 5.49424,-4.81986 1.72709,-1.72709 3.4847,-3.54561 5.27099,-5.45031 0.0934,-0.0689 0.18506,-0.14734 0.27492,-0.2372 l 2.41019,-2.69906 -4.43436,11.18175 c -0.38558,0.8997 -0.8033,1.89595 -1.25315,2.98845 -0.44985,1.02823 -0.67489,1.73521 -0.67489,2.1208 0,0.83543 0.35349,1.34923 1.0604,1.54202 0.64265,0.25706 1.02799,0.38602 1.15652,0.38602 0.57838,0 1.06083,-0.41771 1.44642,-1.25315 0.44985,-0.83543 0.8352,-1.70323 1.15652,-2.60294 l 0.57826,-1.73529 c 1.34955,-3.0847 2.89197,-5.94449 4.62711,-8.57933 1.7994,-2.63484 3.56686,-4.9161 5.302,-6.84402 1.7994,-1.9922 3.43789,-3.59885 4.91597,-4.81986 1.47808,-1.22103 2.60278,-1.95987 3.37396,-2.21692 0.7069,-0.25706 1.34967,-0.38551 1.92805,-0.38551 1.15676,0 1.73529,0.67461 1.73529,2.02417 0,0.57838 -0.22504,1.60648 -0.67489,3.08456 -0.44985,1.47809 -1.22106,3.43822 -2.31356,5.88027 -1.22102,2.57057 -2.21727,4.91605 -2.98845,7.03677 -0.7069,2.05646 -1.0604,3.82393 -1.0604,5.30201 0,1.02822 0.32164,2.02448 0.96429,2.98845 0.64264,0.96396 1.60652,1.4459 2.89181,1.4459 1.09249,0 2.34564,-0.45009 3.75946,-1.34979 1.41381,-0.96396 2.89201,-2.15289 4.43435,-3.5667 1.3135,-1.20843 2.62683,-2.50738 3.94033,-3.88762 -0.0181,0.30056 -0.0289,0.60069 -0.0289,0.89968 0,2.24926 0.57854,4.14465 1.7352904,5.687 1.15676,1.47808 2.89185,2.21743 5.20537,2.21743 2.12072,0 4.08085996,-0.61039 5.88026,-1.83141 1.86367,-1.28529 3.53454,-2.76348 5.01262,-4.43436 0,1.60662 0.44957,3.05244 1.34927,4.33772 0.8997,1.28529 2.3136696,1.92805 4.2415996,1.92805 1.92793,0 4.30578,-1.31737 7.13341,-3.95221 2.82763,-2.63484 6.36204,-6.26584 10.60349,-10.89288 0.38559,-0.38558 0.57826,-0.83567 0.57826,-1.34978 0,-0.44986 -0.19267,-0.86757 -0.57826,-1.25316 -0.32133,-0.44985 -0.73904,-0.67438 -1.25315,-0.67438 -0.25706,0 -0.4821,0.0318 -0.6749,0.0961 -0.19279,0.0643 -0.44968,0.25694 -0.77101,0.57826 -0.57838,0.64265 -1.54227,1.73549 -2.89181,3.27784 -1.34955,1.47808 -2.79589,2.98813 -4.33824,4.53047 -1.54234,1.54235 -3.05239,2.92394 -4.53047,4.14497 -1.41381,1.15676 -2.50615,1.73529 -3.27732,1.73529 -0.57838,0 -1.02847,-0.22504 -1.34979,-0.67489 -0.32132,-0.51411 -0.48162,-1.1245 -0.48162,-1.83141 0,-0.8997 0.1603,-2.02441 0.48162,-3.37396 0.38559,-1.41381 0.86753,-2.85964 1.44591,-4.33772 0.83543,-1.41381 1.67086,-2.86015 2.5063,-4.33823 0.83544,-1.47808 1.57479,-2.85968 2.21744,-4.14497 0.70691,-1.34955 1.28493,-2.53848 1.73478,-3.56671 0.51411,-1.09249 0.86761,-1.89556 1.0604,-2.40967 0.0643,-0.12853 0.12848,-0.25698 0.19275,-0.38551 0.0643,-0.19279 0.0966,-0.38546 0.0966,-0.57825 0,-0.32133 -0.16081,-0.61059 -0.48214,-0.86765 -0.25705,-0.25706 -0.51395,-0.45025 -0.77101,-0.57878 -0.19279,-0.12853 -0.80319,-0.3212 -1.83141,-0.57826 -0.96397,-0.32132 -2.21712,-0.48162 -3.75946,-0.48162 -2.95616,0 -5.9125496,0.73884 -8.8687096,2.21692 -2.8919,1.47808 -5.49428004,3.37398 -7.80779,5.6875 -1.95477,1.95476 -3.58492,4.11824 -4.89738,6.48591 -0.025,0.0229 -0.0505,0.0443 -0.0749,0.0687 -1.28529,1.41382 -2.6668904,2.92439 -4.1449704,4.53099 -1.47808,1.60662 -2.89204,3.08429 -4.2416,4.43384 -1.34955,1.34955 -2.6027,2.47426 -3.75946,3.37395 -1.15676,0.89971 -2.02404,1.34979 -2.60242,1.34979 -0.19279,0 -0.28939,-0.25689 -0.28939,-0.77101 0,-1.09249 0.38587,-2.63492 1.15703,-4.62711 0.77118,-2.05646 1.60661,-4.11319 2.50631,-6.16965 1.28529,-2.95616 2.15258,-5.20556 2.60242,-6.74791 0.51412,-1.60661 0.77153,-2.85976 0.77153,-3.75946 0,-1.73513 -0.48246,-3.11673 -1.44642,-4.14496 -0.96397,-1.02823 -2.31319,-1.54203 -4.04833,-1.54203 -0.8997,0 -1.89595,0.16031 -2.98845,0.48163 -1.09249,0.38558 -2.53831,1.28524 -4.33772,2.69906 -1.73514,1.41382 -3.53445,3.14942 -5.39812,5.20588 l 1.15652,-3.27783 3.8561,-4.43436 5.78362,-6.55464 c 1.41382,-1.60661 2.76356,-3.2774694 4.04885,-5.0126085 1.34955,-1.7993988 2.53847,-3.5344979 3.56671,-5.205368 1.09249,-1.73513997 2.024,-3.30991988 2.79518,-4.7237418 0.77117,-1.41382 1.31734,-2.57037 1.63866,-3.4700701 0.19279,-0.57838 0.28938,-1.31722 0.28938,-2.2169201 0,-1.28529 -0.41771,-2.4742205 -1.25315,-3.5667105 -0.77117,-1.092501 -1.83165,-1.639171 -3.1812,-1.639171 z m 0,3.7594615 c 0.25706,0 0.41788,0.16082 0.48215,0.48215 0.12852,0.32132 0.19275,0.64295 0.19275,0.96428 0,0.44985 -0.0642,0.8675601 -0.19275,1.2531501 -0.25706,0.83543 -0.96405,2.2488901 -2.12081,4.24108 -1.09249,1.99220202 -2.69914,4.4342819 -4.81985,7.3261714 -0.89971,1.2852994 -1.89595,2.5708088 -2.98845,3.8560979 -1.0925,1.2852794 -2.28091,2.6668791 -3.56619,4.1449591 2.05645,-4.8840885 3.85577,-8.9004364 5.39812,-12.04938647 1.6066,-3.21322183 2.95583,-5.62344183 4.04833,-7.23005193 1.34955,-1.9921901 2.53847,-2.9884501 3.5667,-2.9884501 z M -86.065723,21.791506 c 0.32132,0 0.64296,0.0318 0.96428,0.0961 0.38559,0 0.73857,0.0324 1.05989,0.0966 -0.77117,1.34955 -1.76691,3.14886 -2.98793,5.39812 -1.22103,2.24925 -2.31388,4.59474 -3.27784,7.03678 v -0.0961 c -0.64264,1.09249 -1.47808,2.34564 -2.50631,3.75946 -0.96396,1.34955 -2.05629,2.63455 -3.27732,3.85558 -1.15675,1.22102 -2.37753,2.24912 -3.66282,3.08456 -1.285287,0.77117 -2.570807,1.15704 -3.856097,1.15704 -1.02823,0 -1.79944,-0.38587 -2.31355,-1.15704 -0.51411,-0.83544 -0.77101,-1.79932 -0.77101,-2.89181 0,-2.12073 0.57853,-4.36961 1.73529,-6.74739 0.0637,-0.12406 0.13229,-0.24545 0.19792,-0.36846 0.20532,-0.22712 0.34947,-0.48482 0.42943,-0.77462 1.1187,-1.93849 2.48155,-3.74393 4.09588,-5.41208 1.927927,-2.05646 4.113107,-3.72733 6.555147,-5.01261 2.50631,-1.34955 5.04447,-2.02417 7.61504,-2.02417 z m 99.408922,0 c 0.32132,0 0.64296,0.0318 0.96428,0.0961 0.38559,0 0.73908,0.0324 1.0604,0.0966 -0.77117,1.34955 -1.76743,3.14886 -2.98845,5.39812 -1.22102,2.24925 -2.31336,4.59474 -3.2773196,7.03678 v -0.0961 c -0.64264,1.09249 -1.47808,2.34564 -2.5063,3.75946 -0.96397,1.34955 -2.05681,2.63455 -3.27784,3.85558 -1.15676,1.22102 -2.37754004,2.24912 -3.66282004,3.08456 -1.28528996,0.77117 -2.57080996,1.15704 -3.85609996,1.15704 -1.02823,0 -1.79943,-0.38587 -2.31355,-1.15704 -0.51412,-0.83544 -0.77102,-1.79932 -0.77102,-2.89181 0,-2.12073 0.57854,-4.36961 1.7353,-6.74739 1.22102,-2.37778 2.79529,-4.56296 4.72321996,-6.55516 1.92794004,-2.05646 4.11311004,-3.72733 6.55516004,-5.01261 2.50631,-1.34955 5.0444596,-2.02417 7.6150396,-2.02417 z"
       id="path826"
       inkscape:connector-curvature="0"
       sodipodi:nodetypes="sccccccccssccscsccsscccscscccccscscscccccccscccscccsssscccscscccscccscccscsccccccccscscscccscscccccsssccccsscscccsscsssccscscscsccssscscsccscccccscscccccccsscccscscccscsccssccscscccccscscccccccscccscccccccsscccscsccccccccscscsscscccccccssccscccccscscccccssccccccccscscccs" />
    <path
       inkscape:connector-curvature="0"
       d="m -15.727804,-13.297335 c -0.8997,0 -1.99203,0.385861 -3.27732,1.157041 -10e-5,6e-5 -2e-4,1.2e-4 -3e-4,1.9e-4 -1.22091,0.77117 -2.37736,1.960041 -3.46977,3.566521 -1e-4,1.6e-4 -2.1e-4,3.3e-4 -3.1e-4,5e-4 -1.28527,2.0565301 -3.11685,5.5907702 -5.49444,10.602979 -5e-5,1.02e-4 -9e-5,2.04e-4 -1.4e-4,3.06e-4 -2.31349,5.0125778 -5.10901,11.503264 -8.38643,19.471888 -1.1e-4,1.26e-4 -2.2e-4,2.51e-4 -3.3e-4,3.77e-4 -1.34946,1.542234 -2.82755,3.212976 -4.43402,5.012237 -1.3e-4,1.38e-4 -2.5e-4,2.75e-4 -3.8e-4,4.12e-4 -1.56281,1.687854 -3.2496,3.623368 -5.05565,5.797683 -9e-5,7.1e-5 -1.8e-4,1.42e-4 -2.6e-4,2.13e-4 -0.0676,0.0545 -0.13454,0.112366 -0.20024,0.178071 -1.4e-4,1.62e-4 -2.8e-4,3.25e-4 -4.2e-4,4.87e-4 -3.40586,3.984175 -6.77983,7.29389 -10.12144,9.928621 -1.3e-4,1.05e-4 -2.7e-4,2.1e-4 -4e-4,3.14e-4 -3.27736,2.570367 -6.61896,3.855266 -10.02483,3.855266 -2.2e-4,0 -4.4e-4,0 -6.6e-4,0 -2.69866,-2.61e-4 -4.04767,-1.606901 -4.04767,-4.819861 0,-1.88e-4 0,-3.76e-4 0,-5.65e-4 1.2e-4,-2.313388 0.73896,-5.012173 2.21692,-8.096614 6e-5,-1.25e-4 1.2e-4,-2.51e-4 1.8e-4,-3.76e-4 1.47808,-3.084546 3.63083,-5.976067 6.45834,-8.675065 6e-5,-6e-5 1.2e-4,-1.2e-4 1.8e-4,-1.8e-4 1.47801,-1.477959 2.85955,-2.217256 4.14478,-2.217256 6e-5,0 1.3e-4,0 1.9e-4,0 0.77107,5.3e-5 1.28532,0.321688 1.54236,0.964284 5e-5,9.4e-5 10e-5,1.89e-4 1.6e-4,2.83e-4 0.32121,0.578305 0.48198,1.220456 0.48198,1.927247 0,8.4e-5 0,1.68e-4 0,2.51e-4 -4e-5,0.128401 -0.0324,0.224911 -0.0966,0.289137 0,0 0,9.5e-5 0,2.77e-4 0,0.0057 0,0.289111 0,0.289111 -4e-5,8.4e-5 -8e-5,1.68e-4 -1.3e-4,2.52e-4 -0.0642,0.128525 -0.096,0.321114 -0.096,0.578008 0,0 0,5.5e-5 0,1.63e-4 0,0.0068 0,0.674731 0,0.674731 0,8.4e-5 0,1.68e-4 0,2.51e-4 5e-5,0.514015 0.16036,0.963503 0.48163,1.34902 6e-5,5.3e-5 1.3e-4,1.05e-4 1.9e-4,1.57e-4 0.38555,0.321222 0.86743,0.481983 1.44572,0.481983 7e-5,0 1.5e-4,0 2.2e-4,0 0.89956,-5.9e-5 1.44618,-0.385922 1.63895,-1.157034 2e-5,-6.2e-5 4e-5,-1.25e-4 6e-5,-1.88e-4 0.25702,-0.771105 0.38545,-1.50988 0.38545,-2.216731 0,-8.1e-5 0,-1.62e-4 0,-2.43e-4 -4e-5,-1.992089 -0.45013,-3.630501 -1.34979,-4.915737 -4e-5,-5.5e-5 -7e-5,-1.09e-4 -1.1e-4,-1.64e-4 -0.89971,-1.349438 -2.37787,-2.024517 -4.43425,-2.024517 -9e-5,0 -1.8e-4,0 -2.7e-4,0 -2.24917,8.7e-5 -4.53032,1.060568 -6.84375,3.181201 -6e-5,5.8e-5 -1.2e-4,1.15e-4 -1.8e-4,1.73e-4 -2.95608,2.827592 -5.30151,6.040815 -7.0366,9.639548 -3e-5,6.7e-5 -7e-5,1.33e-4 -1e-4,1.99e-4 -0.0999,0.203387 -0.19622,0.405619 -0.29032,0.607517 -8e-5,6.1e-5 -1.6e-4,1.22e-4 -2.3e-4,1.82e-4 -0.11983,0.09308 -0.25112,0.209303 -0.39768,0.355868 -5e-5,5.3e-5 -9e-5,1.05e-4 -1.4e-4,1.57e-4 -0.5784,0.642667 -1.54223,1.735458 -2.891682,3.277678 -5e-5,6e-5 -1.1e-4,1.21e-4 -1.6e-4,1.81e-4 -1.34951,1.478024 -2.79579,2.988015 -4.33807,4.530293 -6e-5,6.3e-5 -1.3e-4,1.26e-4 -1.9e-4,1.89e-4 -1.54228,1.54227 -3.05226,2.9238 -4.53028,4.144776 -6e-5,4.7e-5 -1.2e-4,9.4e-5 -1.7e-4,1.42e-4 -1.41374,1.156666 -2.50601,1.735154 -3.27715,1.735154 -9e-5,0 -1.9e-4,0 -2.8e-4,0 -0.57825,-7.3e-5 -1.02824,-0.225114 -1.34951,-0.674894 -5e-5,-8.3e-5 -10e-5,-1.67e-4 -1.6e-4,-2.51e-4 -0.32121,-0.514061 -0.48147,-1.124364 -0.48147,-1.831163 0,-7.3e-5 0,-1.46e-4 0,-2.19e-4 3e-5,-0.899663 0.16034,-2.024291 0.48163,-3.373734 2e-5,-5.7e-5 3e-5,-1.15e-4 5e-5,-1.72e-4 0.38558,-1.413759 0.86749,-2.859528 1.44585,-4.337547 3e-5,-5.7e-5 7e-5,-1.15e-4 1e-4,-1.72e-4 0.83541,-1.41376 1.6708,-2.860039 2.50621,-4.338066 3e-5,-6e-5 7e-5,-1.2e-4 1e-4,-1.8e-4 0.8354,-1.478011 1.57472,-2.859552 2.21734,-4.144785 3e-5,-5.5e-5 6e-5,-1.09e-4 9e-5,-1.64e-4 0.70687,-1.349487 1.28485,-2.53836 1.73468,-3.566544 4e-5,-8.9e-5 8e-5,-1.77e-4 1.3e-4,-2.66e-4 0.51405,-1.092358 0.8675,-1.895336 1.06027,-2.409406 4e-5,-8.3e-5 8e-5,-1.67e-4 1.3e-4,-2.51e-4 0.0643,-0.12845 0.1284,-0.256811 0.19263,-0.385257 2e-5,-6.2e-5 4e-5,-1.25e-4 6e-5,-1.88e-4 0.0643,-0.192726 0.0965,-0.385338 0.0965,-0.578069 0,-1.04e-4 0,-2.09e-4 0,-3.13e-4 -1e-4,-0.321196 -0.16092,-0.610357 -0.48214,-0.867336 -4e-5,-4.2e-5 -8e-5,-8.3e-5 -1.3e-4,-1.25e-4 -0.25701,-0.256996 -0.51387,-0.450145 -0.77088,-0.578651 -6e-5,-4.2e-5 -1.3e-4,-8.3e-5 -1.9e-4,-1.25e-4 -0.193,-0.128526 -0.80332,-0.321157 -1.83122,-0.578135 -8e-5,-2.6e-5 -1.6e-4,-5.2e-5 -2.4e-4,-7.8e-5 -0.96393,-0.321266 -2.21701,-0.481545 -3.75922,-0.481545 -6e-5,0 -1.2e-4,0 -1.8e-4,0 -2.95611,3e-5 -5.91243,0.738868 -8.86853,2.216919 -6e-5,3e-5 -1.2e-4,6e-5 -1.8e-4,9.1e-5 -2.89183,1.478065 -5.494154,3.373944 -7.807614,5.687417 -4e-5,4.1e-5 -8e-5,8.2e-5 -1.2e-4,1.23e-4 -2.01615,2.016156 -3.6905,4.252064 -5.02335,6.707477 -4e-5,4.5e-5 -8e-5,9e-5 -1.2e-4,1.35e-4 -3.92134,4.419758 -7.15496,7.745866 -9.69541,9.968767 -5e-5,4.6e-5 -1e-4,9.2e-5 -1.6e-4,1.38e-4 -2.57049,2.24916 -4.36975,3.373815 -5.39796,3.373815 -8e-5,0 -1.7e-4,0 -2.5e-4,0 -0.12836,-2.09e-4 -0.19251,-0.161031 -0.19251,-0.48214 0,-8.3e-5 0,-1.67e-4 0,-2.51e-4 6e-5,-1.028218 0.35356,-2.473957 1.0604,-4.337468 3e-5,-7.5e-5 6e-5,-1.51e-4 9e-5,-2.27e-4 0.70688,-1.863589 1.44569,-3.695202 2.21683,-5.494528 0,0 1e-5,-2.7e-5 4e-5,-8.2e-5 0.003,-0.0069 0.57874,-1.34919 0.57874,-1.34919 4e-5,-8.6e-5 7e-5,-1.72e-4 1.1e-4,-2.59e-4 0.89965,-2.120631 1.67083,-4.113047 2.31344,-5.976639 3e-5,-7.5e-5 6e-5,-1.51e-4 9e-5,-2.27e-4 0.70685,-1.863573 1.06031,-3.501995 1.06031,-4.91575 0,-5.7e-5 0,-1.15e-4 0,-1.72e-4 -3e-5,-1.413744 -0.41774,-2.570754 -1.25315,-3.470418 -6e-5,-7.3e-5 -1.3e-4,-1.46e-4 -1.9e-4,-2.19e-4 -0.77117,-0.899553 -1.96004,-1.349052 -3.56652,-1.349052 -1.1e-4,0 -2.2e-4,0 -3.3e-4,0 -2.69899,8.9e-5 -5.366,1.092421 -8.00073,3.277319 -5e-5,4.3e-5 -1.1e-4,8.7e-5 -1.6e-4,1.3e-4 -2.63478,2.120704 -5.1734,4.755407 -7.61539,7.904297 1e-5,-6.2e-5 2e-5,-1.25e-4 3e-5,-1.88e-4 0.12851,-0.7711 0.2251,-1.478025 0.28935,-2.120614 10e-6,-5.7e-5 10e-6,-1.15e-4 2e-5,-1.72e-4 0.0643,-0.706857 0.0961,-1.413262 0.0961,-2.120111 0,-6.2e-5 0,-1.25e-4 0,-1.88e-4 -2e-5,-0.77111 -0.0961,-1.542255 -0.28887,-2.313366 -1e-5,-6.8e-5 -2e-5,-1.36e-4 -3e-5,-2.04e-4 -0.12854,-0.835353 -0.38543,-1.606501 -0.77098,-2.31335 -3e-5,-5.7e-5 -7e-5,-1.15e-4 -1e-4,-1.72e-4 -0.38558,-0.706835 -0.93223,-1.285313 -1.63908,-1.735121 -5e-5,-3.6e-5 -1.1e-4,-7.3e-5 -1.6e-4,-1.09e-4 -0.64261,-0.449782 -1.44562,-0.674788 -2.40951,-0.674788 -7e-5,0 -1.4e-4,0 -2.1e-4,0 -1.73508,6.3e-5 -3.56669,0.771271 -5.49455,2.313557 -8e-5,6.3e-5 -1.6e-4,1.26e-4 -2.4e-4,1.89e-4 -1.92785,1.542311 -3.82368,3.470015 -5.68726,5.783435 2e-5,-1.04e-4 4e-5,-2.09e-4 6e-5,-3.13e-4 0.0643,-0.321216 0.0965,-0.642236 0.0965,-0.963452 1e-5,-6.2e-5 2e-5,-1.25e-4 3e-5,-1.88e-4 0.0643,-0.385513 0.0966,-0.738944 0.0966,-1.060212 0,-1.09e-4 0,-2.19e-4 0,-3.29e-4 -6e-5,-1.349432 -0.38593,-2.634322 -1.15704,-3.855251 -3e-5,-5.2e-5 -6e-5,-1.04e-4 -8e-5,-1.57e-4 -0.70693,-1.28518 -1.89582,-1.927891 -3.56663,-1.927891 -6e-5,0 -1.3e-4,0 -1.9e-4,0 -1.60654,5.5e-5 -3.14889,0.674669 -4.62691,2.024169 -7e-5,7.4e-5 -1.4e-4,1.47e-4 -2.2e-4,2.2e-4 -0.4499,0.449922 -1.28527,1.349512 -2.50609,2.698839 -5e-5,5.3e-5 -9e-5,1.05e-4 -1.4e-4,1.57e-4 -1.15673,1.285254 -2.50591,2.827617 -4.04819,4.62695 -5e-5,6.6e-5 -1.1e-4,1.31e-4 -1.7e-4,1.97e-4 -0.68494,0.804065 -1.39577,1.642227 -2.12218,2.50146 -5e-5,4.9e-5 -1e-4,9.7e-5 -1.5e-4,1.46e-4 -2.4382,2.383738 -0.0138,5.659084 2.08529,3.384142 5e-5,-5.9e-5 1e-4,-1.19e-4 1.5e-4,-1.79e-4 1.25144,-1.465882 2.43471,-2.863559 3.50713,-4.150472 6e-5,-6.5e-5 1.1e-4,-1.3e-4 1.7e-4,-1.96e-4 1.34948,-1.606529 2.53835,-2.988058 3.56654,-4.144769 4e-5,-4.7e-5 9e-5,-9.4e-5 1.3e-4,-1.41e-4 1.02816,-1.156672 1.7351,-1.895982 2.12067,-2.217295 6e-5,-5.7e-5 1.2e-4,-1.15e-4 1.7e-4,-1.72e-4 0.70685,-0.706793 1.34955,-1.06023 1.92788,-1.06023 7e-5,0 1.5e-4,0 2.2e-4,0 0.44973,8.4e-5 0.7384,0.2575 0.86691,0.77153 2e-5,7.4e-5 4e-5,1.47e-4 6e-5,2.2e-4 0.12848,0.44979 0.19269,0.931658 0.19269,1.445686 0,1.05e-4 0,2.1e-4 0,3.14e-4 -4e-5,1.285209 -0.25694,2.730928 -0.77101,4.337405 -2e-5,6.3e-5 -4e-5,1.26e-4 -5e-5,1.89e-4 -0.44985,1.542286 -1.02837,3.180721 -1.73525,4.91579 -3e-5,7.1e-5 -6e-5,1.42e-4 -8e-5,2.12e-4 -0.70689,1.735071 -1.50993,3.470603 -2.40959,5.205672 -3e-5,6.8e-5 -7e-5,1.36e-4 -10e-5,2.04e-4 -0.8354,1.670797 -1.63843,3.212634 -2.40957,4.626387 -4e-5,5.8e-5 -8e-5,1.15e-4 -1.2e-4,1.73e-4 -0.51407,0.706851 -0.93173,1.413774 -1.25304,2.120629 -2e-5,5.3e-5 -5e-5,1.05e-4 -8e-5,1.57e-4 -0.32126,0.642582 -0.48206,1.252923 -0.48206,1.831255 0,6.3e-5 0,1.26e-4 0,1.89e-4 4e-5,0.385525 0.12849,0.771322 0.38551,1.156847 5e-5,7.4e-5 1.1e-4,1.47e-4 1.6e-4,2.2e-4 0.32132,0.449701 0.80321,0.674674 1.44575,0.674674 1.1e-4,0 2.1e-4,0 3.2e-4,0 0.32123,-1.04e-4 0.67462,-0.160929 1.06008,-0.48214 6e-5,-5.2e-5 1.3e-4,-1.04e-4 1.9e-4,-1.57e-4 0.38549,-0.321268 0.67469,-0.642343 0.86745,-0.963609 4e-5,-7.8e-5 8e-5,-1.57e-4 1.2e-4,-2.35e-4 0.96396,-1.927895 2.28129,-4.338032 3.9521,-7.229817 4e-5,-6e-5 7e-5,-1.2e-4 1e-4,-1.8e-4 1.67084,-2.956091 3.43827,-5.81583 5.3019,-8.57914 4e-5,-5.6e-5 8e-5,-1.12e-4 1.2e-4,-1.68e-4 1.92789,-2.763294 3.82324,-5.108716 5.68687,-7.036611 4e-5,-4e-5 8e-5,-8.1e-5 1.2e-4,-1.21e-4 1.92788,-1.992113 3.63108,-2.988327 5.10913,-2.988327 1.1e-4,0 2.1e-4,0 3.2e-4,0 0.64245,1.26e-4 1.02769,0.385987 1.1562,1.157036 1e-5,6.3e-5 2e-5,1.26e-4 3e-5,1.89e-4 0.12851,0.771105 0.19272,1.509881 0.19272,2.216729 0,7.6e-5 0,1.52e-4 0,2.28e-4 -2e-5,1.863614 -0.32114,4.016347 -0.96376,6.458293 -2e-5,1e-4 -5e-5,1.99e-4 -7e-5,2.98e-4 -0.57836,2.441939 -1.25296,4.787837 -2.0241,7.036997 -4e-5,8.4e-5 -8e-5,1.68e-4 -1.2e-4,2.51e-4 -0.25705,0.514083 -0.6105,1.188618 -1.06028,2.023917 -4e-5,6.3e-5 -7e-5,1.26e-4 -1.1e-4,1.89e-4 -0.44981,0.771118 -0.89987,1.606491 -1.34968,2.506116 -4e-5,6.8e-5 -7e-5,1.36e-4 -1.1e-4,2.04e-4 -0.4498,0.835368 -0.83511,1.638358 -1.15641,2.409468 -2e-5,6.3e-5 -5e-5,1.26e-4 -8e-5,1.89e-4 -0.32126,0.771078 -0.48206,1.349551 -0.48206,1.735107 0,8.4e-5 0,1.68e-4 0,2.51e-4 5e-5,0.514008 0.16087,0.964012 0.48214,1.349537 5e-5,7.4e-5 1.1e-4,1.47e-4 1.6e-4,2.2e-4 0.32133,0.4497 0.83508,0.674158 1.54187,0.674158 1.1e-4,0 2.1e-4,0 3.2e-4,0 0.32127,-8.3e-5 0.73889,-0.128536 1.25283,-0.385506 7e-5,-5.2e-5 1.5e-4,-1.04e-4 2.2e-4,-1.57e-4 0.44983,-0.321488 1.06067,-1.317685 1.83171,-2.988293 4e-5,-7e-5 7e-5,-1.41e-4 1e-4,-2.11e-4 0.83541,-1.735083 1.67081,-3.727005 2.50621,-5.976168 5e-5,-7.5e-5 1e-4,-1.51e-4 1.5e-4,-2.27e-4 1.22098,-1.863602 2.60253,-3.855511 4.14481,-5.976153 6e-5,-8.6e-5 1.3e-4,-1.72e-4 1.9e-4,-2.59e-4 1.54229,-2.120625 3.14887,-4.080673 4.81967,-5.880002 7e-5,-7.3e-5 1.4e-4,-1.46e-4 2.1e-4,-2.19e-4 1.6708,-1.7993 3.30923,-3.277423 4.91577,-4.434134 7e-5,-4.9e-5 1.4e-4,-9.9e-5 2e-4,-1.49e-4 1.6708,-1.220928 3.18129,-1.831265 4.53079,-1.831265 6e-5,0 1.2e-4,0 1.7e-4,0 0.7068,5.8e-5 1.06023,0.353547 1.06023,1.060402 0,10e-5 0,1.99e-4 0,2.98e-4 -6e-5,1.220987 -0.38592,2.859389 -1.15703,4.915679 -3e-5,8.4e-5 -6e-5,1.68e-4 -9e-5,2.51e-4 -0.77115,2.056367 -1.57418,3.984567 -2.40958,5.783893 -4e-5,9.2e-5 -8e-5,1.83e-4 -1.3e-4,2.75e-4 -1.02817,2.249152 -1.89594,4.369492 -2.60282,6.36161 -3e-5,7.9e-5 -6e-5,1.57e-4 -9e-5,2.36e-4 -0.70684,1.927828 -1.06031,3.598615 -1.06031,5.012379 0,1e-4 0,1.99e-4 0,2.98e-4 5e-5,1.220888 0.32118,2.248895 0.96377,3.084268 5e-5,6.3e-5 1e-4,1.26e-4 1.6e-4,1.89e-4 0.64264,0.771047 1.63885,1.156847 2.98829,1.156847 1e-4,0 2e-4,0 3e-4,0 2.42934,-2.37e-4 6.54881,-2.91995 12.34365,-8.733319 0,5.6e-5 -1e-5,1.11e-4 -1e-5,1.67e-4 -0.0234,0.341418 -0.0351,0.682093 -0.0351,1.021477 0,9.2e-5 0,1.83e-4 0,2.75e-4 5e-5,2.249134 0.57858,4.144432 1.73529,5.686716 5e-5,6e-5 9e-5,1.21e-4 1.4e-4,1.81e-4 1.15676,1.47796 2.8918,2.217255 5.20523,2.217255 9e-5,0 1.7e-4,0 2.6e-4,0 2.12062,-4.9e-5 4.080674,-0.610441 5.880004,-1.831412 8e-5,-5.2e-5 1.5e-4,-1.04e-4 2.3e-4,-1.57e-4 1.86358,-1.28525 3.53436,-2.763386 5.01238,-4.434199 0,6.6e-5 0,1.31e-4 0,1.96e-4 4e-5,1.606536 0.44961,3.052292 1.34927,4.337524 4e-5,5.3e-5 7e-5,1.05e-4 1.1e-4,1.57e-4 0.89972,1.285183 2.31364,1.927891 4.2415,1.927891 8e-5,0 1.6e-4,0 2.4e-4,0 1.92788,-1.07e-4 4.30566,-1.317481 7.13317,-3.952214 7e-5,-6.6e-5 1.4e-4,-1.32e-4 2.1e-4,-1.99e-4 1.74893,-1.629699 3.76957,-3.642758 6.05937,-6.034574 -1e-5,8.3e-5 -1e-5,1.65e-4 -2e-5,2.48e-4 -0.0447,0.506887 -0.0698,1.008245 -0.0698,1.503536 0,10e-5 0,1.99e-4 0,2.98e-4 5e-5,2.441915 0.610952,4.498546 1.831932,6.169351 5e-5,6.6e-5 9e-5,1.31e-4 1.4e-4,1.96e-4 1.15676,1.606483 3.05212,2.409475 5.68685,2.409475 9e-5,0 1.8e-4,0 2.7e-4,0 2.18489,-3.4e-5 4.27338,-0.417747 6.26549,-1.253154 8e-5,-3.1e-5 1.6e-4,-6.2e-5 2.4e-4,-9.4e-5 1.99212,-0.771162 3.92032,-1.831097 5.78391,-3.180589 8e-5,-5.7e-5 1.5e-4,-1.15e-4 2.3e-4,-1.72e-4 1.86358,-1.413777 3.69467,-3.02036 5.49401,-4.819689 7e-5,-7e-5 1.4e-4,-1.4e-4 2.1e-4,-2.1e-4 1.72702,-1.72703 3.48456,-3.545482 5.27078,-5.450104 6e-5,-4.5e-5 1.2e-4,-8.9e-5 1.8e-4,-1.34e-4 0.0933,-0.06889 0.18494,-0.147257 0.27474,-0.237059 0,0 5e-5,-5.5e-5 1.5e-4,-1.64e-4 0.0123,-0.01384 2.41004,-2.698896 2.41004,-2.698896 0,0 -2e-5,5.7e-5 -7e-5,1.71e-4 -0.0115,0.02889 -4.43429,11.181576 -4.43429,11.181576 -3e-5,7.4e-5 -6e-5,1.47e-4 -9e-5,2.2e-4 -0.38556,0.899641 -0.80325,1.895822 -1.25306,2.988227 -4e-5,8.4e-5 -7e-5,1.68e-4 -1.1e-4,2.51e-4 -0.44978,1.028096 -0.67478,1.734995 -0.67478,2.120549 0,6.8e-5 0,1.36e-4 0,2.04e-4 6e-5,0.835315 0.35355,1.349044 1.0604,1.541822 5e-5,2.1e-5 1e-4,4.2e-5 1.6e-4,6.3e-5 0.64255,0.257016 1.02784,0.385958 1.15636,0.385958 9e-5,0 1.9e-4,0 2.8e-4,0 0.57826,-1.36e-4 1.06061,-0.417849 1.44614,-1.253154 4e-5,-6.8e-5 7e-5,-1.36e-4 1.1e-4,-2.04e-4 0.4498,-0.835366 0.83512,-1.703103 1.15641,-2.602737 0,0 10e-6,-3.5e-5 4e-5,-1.05e-4 0.003,-0.0089 0.57822,-1.735189 0.57822,-1.735189 3e-5,-6.2e-5 5e-5,-1.25e-4 8e-5,-1.88e-4 1.34953,-3.08462 2.89193,-5.944346 4.62703,-8.579133 4e-5,-5.3e-5 7e-5,-1.07e-4 1.1e-4,-1.6e-4 1.79936,-2.634772 3.56679,-4.91598 5.30189,-6.843867 7e-5,-8.1e-5 1.5e-4,-1.62e-4 2.2e-4,-2.43e-4 1.79931,-1.992086 3.43773,-3.59865 4.91575,-4.819616 6e-5,-4.9e-5 1.2e-4,-9.9e-5 1.8e-4,-1.49e-4 1.47799,-1.220939 2.60263,-1.959728 3.37378,-2.216771 6e-5,-2.1e-5 1.2e-4,-4.2e-5 1.7e-4,-6.2e-5 0.70683,-0.25702 1.34955,-0.385444 1.92788,-0.385444 9e-5,0 1.9e-4,0 2.8e-4,0 1.15657,1.1e-4 1.73501,0.674721 1.73501,2.024166 0,9.4e-5 0,1.89e-4 0,2.83e-4 -7e-5,0.578431 -0.22511,1.606444 -0.67489,3.084282 -2e-5,6e-5 -4e-5,1.21e-4 -5e-5,1.81e-4 -0.44986,1.478061 -1.22105,3.438135 -2.31351,5.880081 -2e-5,5.3e-5 -5e-5,1.05e-4 -7e-5,1.57e-4 -1.22099,2.570511 -2.21722,4.915939 -2.98838,7.036622 -3e-5,8.4e-5 -6e-5,1.68e-4 -9e-5,2.51e-4 -0.70684,2.056353 -1.06031,3.823731 -1.06031,5.301752 0,8.4e-5 0,1.68e-4 0,2.51e-4 5e-5,1.028138 0.32169,2.024309 0.96429,2.988197 5e-5,7.9e-5 10e-5,1.57e-4 1.6e-4,2.36e-4 0.64264,0.96381 1.60646,1.44567 2.89165,1.44567 9e-5,0 1.8e-4,0 2.7e-4,0 1.09242,-7.3e-5 2.34549,-0.450161 3.75919,-1.349788 6e-5,-3.9e-5 1.2e-4,-7.8e-5 1.7e-4,-1.17e-4 1.41376,-0.963946 2.8919,-2.152834 4.43418,-3.566591 5e-5,-4.9e-5 1.1e-4,-9.8e-5 1.6e-4,-1.47e-4 1.31345,-1.208379 2.62672,-2.507283 3.94017,-3.887471 -10e-6,9.8e-5 -10e-6,1.96e-4 -2e-5,2.94e-4 -0.0181,0.300469 -0.0289,0.600501 -0.0289,0.899393 0,9.2e-5 0,1.83e-4 0,2.75e-4 5e-5,2.249134 0.57859,4.144432 1.7352896,5.686716 5e-5,6e-5 9e-5,1.21e-4 1.4e-4,1.81e-4 1.15676,1.47796 2.8918,2.217255 5.20523,2.217255 9e-5,0 1.7e-4,0 2.6e-4,0 2.12062,-4.9e-5 4.08067,-0.610441 5.88,-1.831412 8e-5,-5.2e-5 1.5e-4,-1.04e-4 2.3e-4,-1.57e-4 1.86358,-1.28525 3.53437,-2.763386 5.01239,-4.434199 0,6.6e-5 0,1.31e-4 0,1.96e-4 4e-5,1.606536 0.44961,3.052292 1.34927,4.337524 4e-5,5.3e-5 7e-5,1.05e-4 1.1e-4,1.57e-4 0.89971,1.285183 2.3136404,1.927891 4.2414904,1.927891 8e-5,0 1.6e-4,0 2.4e-4,0 1.92788,-1.07e-4 4.305659,-1.317481 7.133169,-3.952214 6e-5,-5.3e-5 1.2e-4,-1.07e-4 1.7e-4,-1.6e-4 2.8276,-2.634827 6.361961,-6.265775 10.603321,-10.892714 6e-5,-6.2e-5 1.3e-4,-1.25e-4 1.9e-4,-1.88e-4 0.38546,-0.385546 0.57807,-0.835571 0.57807,-1.3496 0,-7.3e-5 0,-1.46e-4 0,-2.19e-4 -6e-5,-0.449772 -0.19273,-0.867412 -0.57826,-1.252935 -5e-5,-7.3e-5 -10e-5,-1.46e-4 -1.6e-4,-2.19e-4 -0.32131,-0.449701 -0.73896,-0.674159 -1.25299,-0.674159 -8e-5,0 -1.7e-4,0 -2.5e-4,0 -0.25696,2.1e-5 -0.48191,0.03187 -0.67465,0.09612 -6e-5,2.1e-5 -1.3e-4,4.2e-5 -1.9e-4,6.3e-5 -0.19277,0.06433 -0.44959,0.256981 -0.77082,0.578197 -5e-5,5.3e-5 -9e-5,1.05e-4 -1.4e-4,1.57e-4 -0.5784,0.642667 -1.54224,1.735458 -2.89167,3.277678 -5e-5,6e-5 -1.1e-4,1.21e-4 -1.6e-4,1.81e-4 -1.34951,1.478024 -2.795791,2.988015 -4.338081,4.530293 -6e-5,6.3e-5 -1.3e-4,1.26e-4 -1.9e-4,1.89e-4 -1.54227,1.54227 -3.05226,2.9238 -4.530279,4.144776 -6e-5,4.7e-5 -1.2e-4,9.4e-5 -1.7e-4,1.42e-4 -1.41373,1.156666 -2.50601,1.735154 -3.27715,1.735154 -9e-5,0 -1.9e-4,0 -2.8e-4,0 -0.57825,-7.3e-5 -1.02824,-0.225114 -1.34951,-0.674894 -5e-5,-8.3e-5 -10e-5,-1.67e-4 -1.6e-4,-2.51e-4 -0.32121,-0.514061 -0.48146,-1.124364 -0.48146,-1.831163 0,-7.3e-5 0,-1.46e-4 0,-2.19e-4 3e-5,-0.899663 0.16033,-2.024291 0.48162,-3.373734 2e-5,-5.7e-5 3e-5,-1.15e-4 5e-5,-1.72e-4 0.38558,-1.413759 0.8675,-2.859528 1.44586,-4.337547 3e-5,-5.7e-5 7e-5,-1.15e-4 10e-5,-1.72e-4 0.8354,-1.41376 1.67079,-2.860039 2.5062,-4.338066 3e-5,-6e-5 7e-5,-1.2e-4 10e-5,-1.8e-4 0.8354,-1.478011 1.574719,-2.859552 2.217339,-4.144785 3e-5,-5.5e-5 6e-5,-1.09e-4 9e-5,-1.64e-4 0.70687,-1.349487 1.28486,-2.53836 1.73469,-3.566544 4e-5,-8.9e-5 8e-5,-1.77e-4 1.3e-4,-2.66e-4 0.51404,-1.092358 0.8675,-1.895336 1.06027,-2.409406 4e-5,-8.3e-5 8e-5,-1.67e-4 1.3e-4,-2.51e-4 0.0643,-0.12845 0.12839,-0.256811 0.19262,-0.385257 2e-5,-6.2e-5 4e-5,-1.25e-4 6e-5,-1.88e-4 0.0643,-0.192726 0.0965,-0.385338 0.0965,-0.578069 0,-1.04e-4 0,-2.09e-4 0,-3.13e-4 -10e-5,-0.321196 -0.16091,-0.610357 -0.48214,-0.867336 -4e-5,-4.2e-5 -8e-5,-8.3e-5 -1.3e-4,-1.25e-4 -0.257,-0.256996 -0.51386,-0.450145 -0.77088,-0.578651 -6e-5,-4.2e-5 -1.3e-4,-8.3e-5 -1.9e-4,-1.25e-4 -0.193,-0.128526 -0.80333,-0.321157 -1.83122,-0.578135 -8e-5,-2.6e-5 -1.6e-4,-5.2e-5 -2.4e-4,-7.8e-5 -0.963929,-0.321266 -2.217009,-0.481545 -3.759219,-0.481545 -6e-5,0 -1.2e-4,0 -1.8e-4,0 -2.9561,3e-5 -5.9124304,0.738868 -8.8685304,2.216919 -6e-5,3e-5 -1.2e-4,6e-5 -1.8e-4,9.1e-5 -2.89183,1.478065 -5.49415,3.373944 -7.80761,5.687417 -4e-5,4e-5 -8e-5,8e-5 -1.2e-4,1.2e-4 -1.95472,1.954728 -3.58483,4.118163 -4.89726,6.485788 -7e-5,6e-5 -1.3e-4,1.2e-4 -2e-4,1.79e-4 -0.0249,0.02284 -0.0504,0.04416 -0.0747,0.06855 -5e-5,5.8e-5 -10e-5,1.15e-4 -1.6e-4,1.73e-4 -1.28524,1.413769 -2.6667896,2.924277 -4.1448096,4.530816 -6e-5,6.6e-5 -1.2e-4,1.31e-4 -1.8e-4,1.96e-4 -1.47802,1.606539 -2.89191,3.08415 -4.24142,4.433642 -5e-5,5.5e-5 -1.1e-4,1.1e-4 -1.6e-4,1.65e-4 -1.34949,1.349481 -2.60259,2.474128 -3.7593,3.373788 -5e-5,3.7e-5 -9e-5,7.4e-5 -1.4e-4,1.1e-4 -1.15669,0.899635 -2.02392,1.34968 -2.60228,1.34968 -6e-5,0 -1.3e-4,0 -1.9e-4,0 -0.19266,-1.67e-4 -0.2892,-0.257059 -0.2892,-0.771014 0,-8.9e-5 0,-1.77e-4 0,-2.66e-4 6e-5,-1.092473 0.38593,-2.63481 1.15703,-4.626841 3e-5,-8.3e-5 6e-5,-1.67e-4 9e-5,-2.51e-4 0.77116,-2.056374 1.60656,-4.113021 2.50622,-6.169399 3e-5,-6e-5 5e-5,-1.2e-4 8e-5,-1.8e-4 1.28525,-2.956069 2.15251,-5.205411 2.60234,-6.747727 2e-5,-6.5e-5 4e-5,-1.3e-4 6e-5,-1.96e-4 0.51408,-1.606519 0.77147,-2.859602 0.77147,-3.759265 0,-7e-5 0,-1.41e-4 0,-2.11e-4 -4e-5,-1.735034 -0.4825,-3.116565 -1.44642,-4.144755 -4e-5,-4.2e-5 -8e-5,-8.3e-5 -1.2e-4,-1.25e-4 -0.96396,-1.028142 -2.31314,-1.541901 -4.04821,-1.541901 -7e-5,0 -1.5e-4,0 -2.2e-4,0 -0.89964,2.6e-5 -1.89582,0.160332 -2.98823,0.481627 -9e-5,3.2e-5 -1.8e-4,6.3e-5 -2.7e-4,9.5e-5 -1.09246,0.385637 -2.53819,1.285265 -4.33745,2.698964 -7e-5,5.8e-5 -1.4e-4,1.15e-4 -2.1e-4,1.73e-4 -1.73508,1.413789 -3.53432,3.149334 -5.39791,5.205711 0,0 2e-5,-6.6e-5 7e-5,-1.99e-4 0.006,-0.01681 1.15645,-3.277637 1.15645,-3.277637 0,0 2e-5,-2.2e-5 6e-5,-6.7e-5 0.01,-0.01146 3.85604,-4.434289 3.85604,-4.434289 0,0 3e-5,-3.3e-5 9e-5,-9.9e-5 0.0149,-0.01694 5.78353,-6.55454 5.78353,-6.55454 6e-5,-6.5e-5 1.2e-4,-1.3e-4 1.7e-4,-1.96e-4 1.41376,-1.606553 2.76344,-3.2773464 4.04868,-5.0124155 5e-5,-7.3e-5 1.1e-4,-1.46e-4 1.6e-4,-2.19e-4 1.34949,-1.7993208 2.53835,-3.5343419 3.56655,-5.2051465 4e-5,-7e-5 9e-5,-1.41e-4 1.3e-4,-2.12e-4 1.09244,-1.73505297 2.0239,-3.30976788 2.79505,-4.7235248 3e-5,-6e-5 6e-5,-1.2e-4 9e-5,-1.8e-4 0.77112,-1.41374 1.31726,-2.57023 1.63857,-3.4699001 3e-5,-9e-5 6e-5,-1.8e-4 9e-5,-2.8e-4 0.19273,-0.57834 0.28929,-1.31708 0.28929,-2.2166301 0,-1.1e-4 0,-2.1e-4 0,-3.2e-4 -7e-5,-1.28517 -0.41778,-2.47399 -1.25315,-3.566391 -6e-5,-9e-5 -1.3e-4,-1.8e-4 -1.9e-4,-2.7e-4 -0.77115,-1.09232 -1.83157,-1.638911 -3.18101,-1.638911 0,0 10e-6,0 10e-6,0 0,0 10e-6,0 10e-6,0 m 0,1.253151 m 0,2.506311 c 0.17146,0 0.27875,0.10721 0.32168,0.32143 0.0856,2.1e-4 0.13915,0.0539 0.1606,0.16103 0.0856,0.21411 0.12837,0.42843 0.12837,0.64254 0.0428,0.10725 0.0643,0.21461 0.0643,0.32187 -4e-5,0.29973 -0.0428,0.57806 -0.1285,0.8349901 0,0.14995 -0.0214,0.28919 -0.0643,0.41772 -0.17139,0.55702 -0.64274,1.49939 -1.41394,2.8275901 -0.0857,0.2784999 -0.32138,0.74959 -0.70687,1.4134899 -0.72837,1.3282101 -1.79952,2.95634596 -3.21337,4.8843549 -0.36416,0.664022 -0.89966,1.4779666 -1.60648,2.441812 -0.59984,0.8569167 -1.26404,1.7139781 -1.99241,2.5708868 -0.29987,0.4283797 -0.63192,0.8568314 -0.99604,1.2852071 -0.72838,0.8569107 -1.5207,1.7780291 -2.37759,2.7634681 -0.36413,0.428384 -0.76023,0.888865 -1.1886,1.381498 1.37101,-3.2561617 2.5706,-5.9338229 3.59887,-8.0332237 0.68543,-1.6278963 1.28516,-2.9665783 1.79925,-4.01616627 1.0711,-2.14220683 1.97062,-3.74908683 2.69898,-4.82022683 0.5356,-1.07114 0.98543,-1.8746401 1.34968,-2.4103101 0.89956,-1.3278001 1.69207,-1.9918101 2.37747,-1.9918101 0.44985,-0.66406 0.84616,-0.99615 1.1889,-0.99615 m -46.89173,20.886233 m -23.445942,10.443118 c 0.10732,0 0.21474,0.01062 0.32205,0.03204 0.21401,4.2e-5 0.42823,0.02128 0.64223,0.06408 0.12866,0 0.24644,0.01079 0.35367,0.03221 0.25692,2.1e-5 0.49211,0.0216 0.70622,0.06442 -0.25712,0.449962 -0.5891,1.049842 -0.99616,1.799704 -0.51409,0.899667 -1.17786,2.099098 -1.99177,3.598418 -0.40711,0.749934 -0.77149,1.531946 -1.09291,2.346142 -0.8139,1.499334 -1.54237,3.062809 -2.18493,4.690637 0,0 0,-0.0321 0,-0.03222 0,-0.0038 0,-0.0639 0,-0.0639 -0.21432,0.364342 -0.4929,0.782238 -0.83575,1.253687 -0.42839,0.728203 -0.98524,1.563461 -1.67056,2.505772 -0.3214,0.449962 -0.68559,0.878404 -1.09268,1.285523 -0.64258,0.899583 -1.37072,1.756138 -2.18464,2.570057 -0.38568,0.407106 -0.7927,0.749907 -1.22122,1.028487 -0.77109,0.813882 -1.58484,1.499186 -2.4416,2.056078 -0.428534,0.257121 -0.857154,0.385805 -1.285684,0.385867 -0.85676,0.51399 -1.71366,0.771169 -2.57042,0.771169 -0.34291,0 -0.60015,-0.128621 -0.77169,-0.385678 -0.68523,-1.26e-4 -1.1992,-0.257368 -1.54186,-0.771358 -0.17145,-0.278616 -0.25717,-0.600045 -0.25725,-0.964346 -0.34258,-0.556865 -0.51376,-1.199316 -0.51376,-1.927468 0,-0.707081 0.19284,-1.456881 0.57843,-2.249647 9e-5,-1.413665 0.38578,-2.912749 1.15686,-4.497743 0.0213,-0.04151 0.0443,-0.08214 0.0662,-0.123302 0.0424,-0.08254 0.088,-0.163305 0.1317,-0.245152 0.0686,-0.07586 0.11676,-0.161905 0.14354,-0.258653 0.13667,-0.151308 0.23264,-0.322963 0.28589,-0.515975 0.37299,-0.64632 0.82737,-1.248292 1.36557,-1.804498 0.74575,-1.292146 1.65422,-2.495615 2.73031,-3.607576 0.642724,-0.68557 1.371194,-1.24261 2.185294,-1.671122 1.28522,-1.370858 2.74193,-2.484686 4.36986,-3.341491 0.83554,-0.449904 1.68169,-0.674831 2.53865,-0.674886 1.67078,-0.899589 3.36278,-1.34928 5.07639,-1.34928 0,0 0,4e-6 0,4e-6 0,0 0,0 0,0 m 66.272612,0 m 33.13631,0 c 0.10732,0 0.21474,0.01062 0.32205,0.03204 0.21401,4.2e-5 0.42823,0.02128 0.64223,0.06408 0.12866,0 0.24661,0.01079 0.35384,0.03221 0.25692,2.1e-5 0.49245,0.0216 0.70656,0.06442 -0.25712,0.449962 -0.58927,1.049842 -0.99634,1.799704 -0.51409,0.899667 -1.1782,2.099098 -1.99211,3.598418 -0.40711,0.749934 -0.77132,1.531946 -1.09274,2.346142 -0.81389,1.499334 -1.5420204,3.062809 -2.1845804,4.690637 0,0 0,-0.0321 0,-0.03222 0,-0.0038 0,-0.0639 0,-0.0639 -0.21432,0.364342 -0.4929,0.782238 -0.83575,1.253687 -0.42838,0.728203 -0.98524,1.563461 -1.67055,2.505772 -0.3214,0.449962 -0.68576,0.878404 -1.09285,1.285523 -0.64259,0.899583 -1.37107,1.756138 -2.18499,2.570057 -0.38568,0.407106 -0.7927,0.749907 -1.22122,1.028487 -0.77109,0.813882 -1.58485,1.499186 -2.4416,2.056078 -0.42853,0.257121 -0.85715,0.385805 -1.28568,0.385867 -0.85676,0.51399 -1.71366,0.771169 -2.57042,0.771169 -0.34291,0 -0.60014,-0.128621 -0.77169,-0.385678 -0.68523,-1.26e-4 -1.1992,-0.257368 -1.54186,-0.771358 -0.17146,-0.278616 -0.25717,-0.600045 -0.25726,-0.964346 -0.34258,-0.556865 -0.51376,-1.199316 -0.51376,-1.927468 0,-0.707081 0.19285,-1.456881 0.57843,-2.249647 1e-4,-1.413665 0.38579,-2.912749 1.15687,-4.497743 0.40711,-0.792787 0.93196,-1.521372 1.5747,-2.185632 0.81398,-1.584963 1.86339,-3.041553 3.14852,-4.369524 0.64273,-0.68557 1.37119,-1.24261 2.18529,-1.671122 1.28523,-1.370858 2.74194,-2.484686 4.36987,-3.341491 0.83554,-0.449904 1.68169,-0.674831 2.53865,-0.674886 1.67078,-0.899589 3.3627704,-1.34928 5.0763904,-1.34928 0,0 0,4e-6 0,4e-6 0,0 0,0 0,0"
       style="font-style:normal;font-variant:normal;font-weight:bold;font-stretch:normal;font-size:96.39656067px;line-height:1.25;font-family:'Learning Curve';-inkscape-font-specification:'Learning Curve, Bold';font-variant-ligatures:normal;font-variant-caps:normal;font-variant-numeric:normal;font-feature-settings:normal;text-align:start;letter-spacing:0px;word-spacing:0px;writing-mode:lr-tb;text-anchor:start;opacity:1;fill:#a683fb;fill-opacity:1;stroke:#a683fb;stroke-width:2.11666656;stroke-linecap:round;stroke-linejoin:round;stroke-miterlimit:4;stroke-dasharray:none;stroke-opacity:1;filter:url(#filter885)"
       id="path862" />
    <path
       inkscape:connector-curvature="0"
       d="m -15.727944,-13.297336 c -0.8997,0 -1.99203,0.38586 -3.27732,1.15704 -5e-5,3e-5 -10e-5,6e-5 -1.5e-4,9e-5 -1.22096,0.771181 -2.37746,1.960071 -3.46992,3.566621 -5e-5,8e-5 -10e-5,1.6e-4 -1.6e-4,2.5e-4 -1.28527,2.0565 -3.11691,5.5908103 -5.49459,10.6032301 -2e-5,5.1e-5 -5e-5,1.02e-4 -7e-5,1.53e-4 -2.31351,5.0125987 -5.10904,11.5033359 -8.3865,19.4720409 -5e-5,6.2e-5 -1.1e-4,1.25e-4 -1.6e-4,1.88e-4 -1.34951,1.542287 -2.82766,3.213091 -4.43419,5.012426 -6e-5,6.8e-5 -1.3e-4,1.37e-4 -1.9e-4,2.06e-4 -1.56287,1.687902 -3.24971,3.623485 -5.05584,5.797889 -4e-5,3.5e-5 -9e-5,7.1e-5 -1.3e-4,1.06e-4 -0.0677,0.05453 -0.13462,0.112429 -0.20037,0.178178 -7e-5,8.1e-5 -1.4e-4,1.62e-4 -2.1e-4,2.43e-4 -3.40594,3.984283 -6.77997,7.294079 -10.12165,9.928865 -7e-5,5.2e-5 -1.3e-4,1.04e-4 -2e-4,1.57e-4 -3.27743,2.570471 -6.61909,3.855423 -10.02503,3.855423 -1.1e-4,0 -2.2e-4,0 -3.3e-4,0 -2.69888,-1.31e-4 -4.048,-1.606771 -4.048,-4.819861 0,-9.4e-5 0,-1.89e-4 0,-2.83e-4 6e-5,-2.313451 0.7389,-5.01233 2.21692,-8.096896 3e-5,-6.3e-5 6e-5,-1.26e-4 9e-5,-1.89e-4 1.47808,-3.084616 3.63086,-5.9762 6.45843,-8.675252 1.2e-4,-1.21e-4 2.4e-4,-2.41e-4 3.6e-4,-3.61e-4 1.47794,-1.477839 2.85942,-2.217075 4.1446,-2.217075 1.3e-4,0 2.5e-4,0 3.8e-4,0 0.77097,1.04e-4 1.28515,0.321739 1.54217,0.964284 10e-5,1.88e-4 2.1e-4,3.76e-4 3.1e-4,5.65e-4 0.32111,0.578232 0.48183,1.220289 0.48183,1.926965 0,1.67e-4 0,3.34e-4 0,5.01e-4 -8e-5,0.128276 -0.0325,0.224702 -0.0966,0.288887 0,0 0,1.88e-4 0,5.53e-4 0,0.01132 0,0.288835 0,0.288835 -8e-5,1.67e-4 -1.7e-4,3.35e-4 -2.5e-4,5.02e-4 -0.0641,0.128526 -0.0958,0.32103 -0.0958,0.577758 0,0 0,1.1e-4 0,3.26e-4 0,0.01362 0,0.674568 0,0.674568 0,1.67e-4 0,3.34e-4 0,5.02e-4 10e-5,0.513909 0.16041,0.963314 0.48163,1.348769 1.3e-4,1.04e-4 2.5e-4,2.09e-4 3.8e-4,3.13e-4 0.38551,0.321117 0.86734,0.481827 1.44553,0.481827 1.5e-4,0 2.9e-4,0 4.4e-4,0 0.89943,-1.23e-4 1.44597,-0.385986 1.63873,-1.157034 4e-5,-1.26e-4 8e-5,-2.51e-4 1.3e-4,-3.77e-4 0.25697,-0.771037 0.38538,-1.509749 0.38538,-2.216542 0,-1.62e-4 0,-3.25e-4 0,-4.87e-4 -7e-5,-1.991979 -0.45016,-3.63031 -1.34979,-4.915493 -7e-5,-1.1e-4 -1.5e-4,-2.2e-4 -2.2e-4,-3.3e-4 -0.89972,-1.349327 -2.37785,-2.024351 -4.43414,-2.024351 -1.8e-4,0 -3.7e-4,0 -5.5e-4,0 -2.24907,1.72e-4 -4.53014,1.060653 -6.84347,3.181201 -1.2e-4,1.15e-4 -2.4e-4,2.3e-4 -3.6e-4,3.45e-4 -2.95599,2.82755 -5.30136,6.040715 -7.03642,9.639376 -7e-5,1.32e-4 -1.3e-4,2.65e-4 -2e-4,3.97e-4 -0.0998,0.20332 -0.19615,0.405486 -0.29022,0.607319 -1.6e-4,1.21e-4 -3.1e-4,2.42e-4 -4.7e-4,3.64e-4 -0.11976,0.09305 -0.25097,0.209216 -0.39744,0.355686 -9e-5,1.04e-4 -1.9e-4,2.09e-4 -2.8e-4,3.14e-4 -0.57841,0.642687 -1.5422,1.735426 -2.891542,3.277521 -1.1e-4,1.2e-4 -2.2e-4,2.4e-4 -3.3e-4,3.61e-4 -1.34946,1.477966 -2.79569,2.987897 -4.3379,4.530113 -1.3e-4,1.25e-4 -2.5e-4,2.51e-4 -3.8e-4,3.76e-4 -1.54222,1.542195 -3.05213,2.923662 -4.53009,4.144589 -1.2e-4,9.4e-5 -2.3e-4,1.88e-4 -3.5e-4,2.82e-4 -1.41365,1.156573 -2.50586,1.735014 -3.27697,1.735014 -1.9e-4,0 -3.8e-4,0 -5.6e-4,0 -0.57811,-1.47e-4 -1.02801,-0.225188 -1.34923,-0.674894 -1e-4,-1.68e-4 -2.1e-4,-3.35e-4 -3.1e-4,-5.02e-4 -0.32111,-0.51401 -0.48132,-1.124228 -0.48132,-1.830912 0,-1.47e-4 0,-2.93e-4 0,-4.4e-4 5e-5,-0.899626 0.16036,-2.024181 0.48163,-3.373513 3e-5,-1.15e-4 6e-5,-2.3e-4 9e-5,-3.46e-4 0.38558,-1.413704 0.86748,-2.859415 1.44581,-4.337373 7e-5,-1.15e-4 1.4e-4,-2.3e-4 2e-4,-3.46e-4 0.83538,-1.413705 1.67074,-2.859926 2.50611,-4.337892 7e-5,-1.21e-4 1.4e-4,-2.41e-4 2e-4,-3.61e-4 0.83536,-1.477943 1.57464,-2.859424 2.21724,-4.144604 6e-5,-1.1e-4 1.2e-4,-2.2e-4 1.7e-4,-3.3e-4 0.70683,-1.349419 1.28479,-2.538236 1.7346,-3.566378 8e-5,-1.78e-4 1.7e-4,-3.56e-4 2.5e-4,-5.34e-4 0.51399,-1.092222 0.86739,-1.89511 1.06015,-2.409138 8e-5,-1.68e-4 1.7e-4,-3.35e-4 2.5e-4,-5.02e-4 0.0642,-0.128367 0.12832,-0.256645 0.19251,-0.385006 4e-5,-1.26e-4 8e-5,-2.51e-4 1.3e-4,-3.77e-4 0.0642,-0.192663 0.0965,-0.385213 0.0965,-0.57788 0,-2.1e-4 0,-4.19e-4 0,-6.28e-4 -2.1e-4,-0.32107 -0.16103,-0.610127 -0.48214,-0.867021 -8e-5,-8.4e-5 -1.7e-4,-1.68e-4 -2.5e-4,-2.51e-4 -0.25698,-0.256933 -0.51379,-0.45004 -0.77076,-0.578525 -1.3e-4,-8.4e-5 -2.5e-4,-1.68e-4 -3.8e-4,-2.51e-4 -0.19321,-0.128526 -0.80347,-0.321116 -1.83103,-0.578009 -1.6e-4,-5.3e-5 -3.1e-4,-1.05e-4 -4.7e-4,-1.57e-4 -0.96391,-0.321214 -2.2169,-0.481466 -3.75899,-0.481466 -1.2e-4,0 -2.4e-4,0 -3.6e-4,0 -2.95605,6e-5 -5.91231,0.738898 -8.86835,2.216919 -1.2e-4,6e-5 -2.4e-4,1.2e-4 -3.5e-4,1.8e-4 -2.89176,1.478053 -5.494024,3.373902 -7.807444,5.687328 -8e-5,8.2e-5 -1.6e-4,1.64e-4 -2.5e-4,2.46e-4 -2.01609,2.016124 -3.69039,4.251991 -5.02322,6.707354 -8e-5,9e-5 -1.6e-4,1.8e-4 -2.4e-4,2.69e-4 -3.92128,4.419691 -7.15486,7.745754 -9.69529,9.968633 -1e-4,9.1e-5 -2.1e-4,1.83e-4 -3.1e-4,2.74e-4 -2.57042,2.249069 -4.36962,3.373679 -5.39781,3.373679 -1.7e-4,0 -3.3e-4,-10e-7 -5e-4,-2e-6 -0.1282,-4.18e-4 -0.19226,-0.161239 -0.19226,-0.482138 0,-1.68e-4 0,-3.35e-4 0,-5.03e-4 1.2e-4,-1.028202 0.35362,-2.473858 1.0604,-4.337216 6e-5,-1.52e-4 1.2e-4,-3.04e-4 1.7e-4,-4.55e-4 0.70686,-1.86351 1.44564,-3.695048 2.21675,-5.4943 0,0 2e-5,-5.5e-5 7e-5,-1.64e-4 0.006,-0.01384 0.57871,-1.349108 0.57871,-1.349108 7e-5,-1.73e-4 1.5e-4,-3.46e-4 2.2e-4,-5.18e-4 0.89961,-2.120535 1.67074,-4.112865 2.31333,-5.97638 6e-5,-1.52e-4 1.2e-4,-3.04e-4 1.7e-4,-4.55e-4 0.7068,-1.863479 1.06023,-3.501825 1.06023,-4.915522 0,-1.15e-4 0,-2.3e-4 0,-3.45e-4 -7e-5,-1.413666 -0.41778,-2.570619 -1.25315,-3.470245 -1.3e-4,-1.47e-4 -2.5e-4,-2.93e-4 -3.8e-4,-4.4e-4 -0.77118,-0.899406 -1.95998,-1.348831 -3.56633,-1.348831 -2.2e-4,0 -4.4e-4,0 -6.6e-4,0 -2.69887,1.77e-4 -5.36577,1.092509 -8.0004,3.277319 -1e-4,8.6e-5 -2.1e-4,1.72e-4 -3.2e-4,2.59e-4 -2.63472,2.120681 -5.17328,4.755342 -7.61523,7.904168 3e-5,-1.26e-4 5e-5,-2.51e-4 7e-5,-3.77e-4 0.12849,-0.771026 0.22506,-1.477889 0.28931,-2.120425 1e-5,-1.15e-4 3e-5,-2.3e-4 4e-5,-3.46e-4 0.0643,-0.706798 0.0961,-1.413146 0.0961,-2.119937 0,-1.26e-4 0,-2.51e-4 0,-3.77e-4 -4e-5,-0.771047 -0.0961,-1.54213 -0.28887,-2.313177 -3e-5,-1.36e-4 -5e-5,-2.72e-4 -7e-5,-4.08e-4 -0.12855,-0.835275 -0.38543,-1.606355 -0.77094,-2.313146 -7e-5,-1.15e-4 -1.3e-4,-2.3e-4 -1.9e-4,-3.45e-4 -0.38558,-0.706757 -0.9322,-1.285178 -1.63899,-1.734948 -1.1e-4,-7.4e-5 -2.1e-4,-1.47e-4 -3.2e-4,-2.2e-4 -0.64259,-0.449709 -1.44554,-0.674677 -2.40935,-0.674677 -1.5e-4,0 -2.9e-4,0 -4.3e-4,0 -1.73501,1.25e-4 -3.56655,0.771333 -5.49433,2.313557 -1.6e-4,1.25e-4 -3.2e-4,2.51e-4 -4.8e-4,3.76e-4 -1.92776,1.54228 -3.82352,3.469922 -5.68702,5.783248 4e-5,-2.1e-4 8e-5,-4.19e-4 1.2e-4,-6.28e-4 0.0642,-0.32111 0.0965,-0.642027 0.0965,-0.963137 2e-5,-1.26e-4 4e-5,-2.51e-4 6e-5,-3.77e-4 0.0643,-0.385439 0.0965,-0.738808 0.0965,-1.060023 0,-2.2e-4 0,-4.4e-4 0,-6.59e-4 -1.2e-4,-1.349312 -0.38599,-2.634092 -1.15704,-3.854921 -5e-5,-1.05e-4 -1.1e-4,-2.1e-4 -1.7e-4,-3.14e-4 -0.70693,-1.285076 -1.89579,-1.927734 -3.56654,-1.927734 -1.3e-4,0 -2.6e-4,0 -3.9e-4,0 -1.60647,1.09e-4 -3.14875,0.674723 -4.62671,2.024169 -1.4e-4,1.46e-4 -2.9e-4,2.93e-4 -4.3e-4,4.39e-4 -0.44996,0.449995 -1.28525,1.349512 -2.50588,2.69862 -9e-5,1.04e-4 -1.8e-4,2.09e-4 -2.8e-4,3.13e-4 -1.1567,1.285223 -2.50583,2.827533 -4.04805,4.626794 -1.1e-4,1.31e-4 -2.2e-4,2.61e-4 -3.3e-4,3.92e-4 -0.6849,0.804006 -1.39566,1.642102 -2.12202,2.501265 -9e-5,9.7e-5 -1.9e-4,1.94e-4 -2.9e-4,2.91e-4 -2.43796,2.383725 -0.0136,5.658892 2.08543,3.383997 1.1e-4,-1.2e-4 2.1e-4,-2.39e-4 3.1e-4,-3.58e-4 1.25138,-1.465818 2.43459,-2.863433 3.50697,-4.150293 1.1e-4,-1.31e-4 2.2e-4,-2.62e-4 3.3e-4,-3.93e-4 1.34942,-1.606445 2.53824,-2.987908 3.56638,-4.144572 9e-5,-9.4e-5 1.7e-4,-1.89e-4 2.6e-4,-2.83e-4 1.02809,-1.156591 1.73499,-1.895853 2.12054,-2.217153 1.2e-4,-1.15e-4 2.3e-4,-2.3e-4 3.5e-4,-3.45e-4 0.70677,-0.706678 1.34942,-1.060057 1.9277,-1.060057 1.5e-4,0 3e-4,0 4.4e-4,0 0.4496,1.67e-4 0.73821,0.257583 0.86669,0.77153 5e-5,1.46e-4 9e-5,2.93e-4 1.3e-4,4.39e-4 0.12844,0.449727 0.19262,0.931522 0.19262,1.445467 0,2.09e-4 0,4.18e-4 0,6.27e-4 -8e-5,1.28513 -0.25698,2.730745 -0.77101,4.337092 -3e-5,1.25e-4 -7e-5,2.51e-4 -1.1e-4,3.76e-4 -0.44983,1.542231 -1.02833,3.180604 -1.73519,4.915603 -5e-5,1.41e-4 -1.1e-4,2.82e-4 -1.7e-4,4.23e-4 -0.70687,1.735 -1.50987,3.470462 -2.4095,5.205461 -6e-5,1.36e-4 -1.3e-4,2.72e-4 -2e-4,4.08e-4 -0.83537,1.670718 -1.63836,3.212487 -2.40947,4.626183 -8e-5,1.15e-4 -1.6e-4,2.3e-4 -2.5e-4,3.45e-4 -0.514,0.706794 -0.93163,1.413659 -1.25291,2.120457 -5e-5,1.04e-4 -1e-4,2.09e-4 -1.5e-4,3.14e-4 -0.32122,0.642523 -0.48199,1.252813 -0.48199,1.831098 0,1.25e-4 0,2.51e-4 0,3.76e-4 9e-5,0.385463 0.12854,0.771197 0.38551,1.15666 1.1e-4,1.46e-4 2.1e-4,2.93e-4 3.2e-4,4.39e-4 0.32132,0.449554 0.80315,0.674455 1.44559,0.674455 2.1e-4,0 4.2e-4,0 6.3e-4,-1e-6 0.32115,-2.09e-4 0.67444,-0.161033 1.05977,-0.482139 1.3e-4,-1.05e-4 2.6e-4,-2.09e-4 3.8e-4,-3.14e-4 0.38539,-0.321216 0.67454,-0.642239 0.86726,-0.963452 8e-5,-1.57e-4 1.6e-4,-3.14e-4 2.4e-4,-4.71e-4 0.96395,-1.927856 2.28124,-4.337915 3.95198,-7.229581 7e-5,-1.21e-4 1.4e-4,-2.41e-4 2.1e-4,-3.61e-4 1.67081,-2.956027 3.4382,-5.815706 5.30179,-8.578959 8e-5,-1.13e-4 1.6e-4,-2.25e-4 2.4e-4,-3.38e-4 1.92785,-2.76322 3.82316,-5.108586 5.68675,-7.036441 8e-5,-8.1e-5 1.6e-4,-1.62e-4 2.4e-4,-2.44e-4 1.92783,-1.992031 3.63099,-2.988204 5.10901,-2.988204 2.1e-4,0 4.2e-4,0 6.3e-4,0 0.64227,2.51e-4 1.02741,0.386112 1.15589,1.157036 3e-5,1.25e-4 5e-5,2.51e-4 7e-5,3.76e-4 0.12849,0.771037 0.19268,1.509751 0.19268,2.216542 0,1.51e-4 0,3.03e-4 0,4.55e-4 -5e-5,1.863561 -0.32117,4.016218 -0.96376,6.458066 -4e-5,1.98e-4 -9e-5,3.97e-4 -1.4e-4,5.96e-4 -0.57835,2.441832 -1.25292,4.78763 -2.02403,7.036699 -8e-5,1.67e-4 -1.6e-4,3.34e-4 -2.5e-4,5.02e-4 -0.25704,0.514051 -0.61044,1.188503 -1.06015,2.023666 -7e-5,1.25e-4 -1.4e-4,2.51e-4 -2.2e-4,3.76e-4 -0.44977,0.771067 -0.89979,1.606376 -1.34957,2.505929 -7e-5,1.36e-4 -1.4e-4,2.72e-4 -2.2e-4,4.08e-4 -0.44975,0.835294 -0.83503,1.638216 -1.1563,2.409264 -5e-5,1.25e-4 -1e-4,2.51e-4 -1.5e-4,3.76e-4 -0.32122,0.770985 -0.48199,1.349394 -0.48199,1.73492 0,1.67e-4 0,3.34e-4 0,5.02e-4 1.1e-4,0.513903 0.16093,0.963823 0.48214,1.349286 1.1e-4,1.46e-4 2.1e-4,2.93e-4 3.2e-4,4.39e-4 0.32134,0.449554 0.83503,0.673939 1.54171,0.673939 2.1e-4,0 4.2e-4,0 6.3e-4,-10e-7 0.32124,-1.67e-4 0.73875,-0.12862 1.25252,-0.385505 1.5e-4,-1.05e-4 3e-4,-2.1e-4 4.4e-4,-3.14e-4 0.44981,-0.321656 1.06058,-1.3178 1.83149,-2.988136 7e-5,-1.41e-4 1.4e-4,-2.83e-4 2.1e-4,-4.24e-4 0.83537,-1.735033 1.67073,-3.726884 2.5061,-5.975955 10e-5,-1.52e-4 2e-4,-3.04e-4 3e-4,-4.55e-4 1.22095,-1.863537 2.60245,-3.85537 4.14466,-5.975925 1.3e-4,-1.73e-4 2.6e-4,-3.46e-4 3.8e-4,-5.18e-4 1.54224,-2.120526 3.14875,-4.080488 4.81948,-5.879743 1.4e-4,-1.47e-4 2.8e-4,-2.93e-4 4.1e-4,-4.4e-4 1.67074,-1.7992 3.30909,-3.277249 4.91557,-4.433913 1.4e-4,-10e-5 2.7e-4,-1.99e-4 4.1e-4,-2.98e-4 1.67072,-1.22083 3.18114,-1.831116 4.53058,-1.831116 1.2e-4,0 2.3e-4,0 3.5e-4,0 0.70668,1.15e-4 1.06005,0.353604 1.06005,1.060402 0,1.98e-4 0,3.97e-4 0,5.96e-4 -1.3e-4,1.220955 -0.38599,2.859257 -1.15703,4.915381 -6e-5,1.67e-4 -1.3e-4,3.34e-4 -1.9e-4,5.02e-4 -0.77111,2.056273 -1.57412,3.984388 -2.40948,5.783642 -8e-5,1.83e-4 -1.7e-4,3.66e-4 -2.5e-4,5.49e-4 -1.02812,2.24905 -1.89585,4.369299 -2.6027,6.361336 -6e-5,1.57e-4 -1.2e-4,3.13e-4 -1.7e-4,4.7e-4 -0.70679,1.92773 -1.06023,3.598438 -1.06023,5.012145 0,1.98e-4 0,3.97e-4 0,5.96e-4 10e-5,1.220756 0.32123,2.248665 0.96377,3.08397 1e-4,1.25e-4 2.1e-4,2.51e-4 3.1e-4,3.76e-4 0.64265,0.770922 1.63881,1.15666 2.98814,1.15666 2e-4,0 4e-4,0 5.9e-4,0 2.42938,-4.76e-4 6.54875,-2.920187 12.34336,-8.733319 -10e-6,1.11e-4 -2e-5,2.22e-4 -2e-5,3.33e-4 -0.0234,0.341362 -0.0351,0.681981 -0.0351,1.021311 0,1.83e-4 0,3.66e-4 0,5.49e-4 9e-5,2.249013 0.57862,4.14422 1.73529,5.686442 9e-5,1.2e-4 1.9e-4,2.4e-4 2.8e-4,3.61e-4 1.15676,1.47784 2.89176,2.217075 5.20509,2.217075 1.7e-4,0 3.5e-4,0 5.2e-4,0 2.12052,-1e-4 4.080494,-0.610492 5.879744,-1.831412 1.5e-4,-1.05e-4 3e-4,-2.09e-4 4.5e-4,-3.14e-4 1.86349,-1.285214 3.5342,-2.763297 5.01216,-4.434042 0,1.3e-4 0,2.61e-4 0,3.92e-4 7e-5,1.606457 0.44964,3.052147 1.34927,4.337328 7e-5,1.04e-4 1.5e-4,2.09e-4 2.2e-4,3.13e-4 0.89972,1.285078 2.31361,1.927735 4.24139,1.927735 1.6e-4,0 3.1e-4,0 4.7e-4,0 1.92785,-2.15e-4 4.30554,-1.317589 7.13294,-3.952214 1.4e-4,-1.33e-4 2.8e-4,-2.66e-4 4.3e-4,-3.98e-4 1.74888,-1.629665 3.76945,-3.642657 6.05915,-6.034375 -10e-6,1.65e-4 -3e-5,3.3e-4 -4e-5,4.95e-4 -0.0447,0.506802 -0.0698,1.008078 -0.0698,1.503289 0,1.98e-4 0,3.97e-4 0,5.96e-4 1e-4,2.441783 0.611002,4.498316 1.831932,6.169053 9e-5,1.3e-4 1.9e-4,2.61e-4 2.8e-4,3.92e-4 1.15678,1.606351 3.05208,2.409279 5.68671,2.409279 1.8e-4,0 3.6e-4,0 5.3e-4,0 2.1848,-6.8e-5 4.2732,-0.417781 6.26523,-1.253154 1.6e-4,-6.3e-5 3.2e-4,-1.26e-4 4.9e-4,-1.89e-4 1.99202,-0.771154 3.92014,-1.831057 5.78366,-3.180494 1.5e-4,-1.15e-4 3e-4,-2.3e-4 4.5e-4,-3.45e-4 1.86351,-1.413736 3.69453,-3.020261 5.49379,-4.819516 1.4e-4,-1.41e-4 2.8e-4,-2.81e-4 4.2e-4,-4.22e-4 1.72696,-1.726966 3.48443,-3.545348 5.27057,-5.449892 1.2e-4,-9e-5 2.4e-4,-1.8e-4 3.6e-4,-2.7e-4 0.0933,-0.06885 0.18482,-0.14718 0.27456,-0.236923 0,0 10e-5,-1.1e-4 2.9e-4,-3.28e-4 0.0247,-0.02768 2.4099,-2.698732 2.4099,-2.698732 0,0 -5e-5,1.13e-4 -1.3e-4,3.4e-4 -0.0229,0.05778 -4.43423,11.181407 -4.43423,11.181407 -6e-5,1.46e-4 -1.3e-4,2.92e-4 -1.9e-4,4.39e-4 -0.38553,0.899584 -0.80318,1.895692 -1.25296,2.988008 -7e-5,1.67e-4 -1.5e-4,3.34e-4 -2.2e-4,5.02e-4 -0.4497,1.02796 -0.67467,1.734774 -0.67467,2.120298 0,1.36e-4 0,2.72e-4 0,4.08e-4 1.2e-4,0.835194 0.35361,1.348855 1.0604,1.541618 10e-5,4.2e-5 2.1e-4,8.3e-5 3.1e-4,1.25e-4 0.64247,0.256975 1.0277,0.385896 1.15621,0.385896 1.9e-4,0 3.8e-4,0 5.6e-4,-10e-7 0.57813,-2.71e-4 1.0604,-0.417984 1.44586,-1.253153 7e-5,-1.36e-4 1.5e-4,-2.72e-4 2.2e-4,-4.08e-4 0.44976,-0.835304 0.83503,-1.702973 1.1563,-2.602533 0,0 2e-5,-7.1e-5 7e-5,-2.11e-4 0.006,-0.01779 0.57819,-1.735083 0.57819,-1.735083 5e-5,-1.26e-4 1.1e-4,-2.51e-4 1.6e-4,-3.77e-4 1.34952,-3.084548 2.89188,-5.944212 4.62695,-8.578944 7e-5,-1.08e-4 1.5e-4,-2.15e-4 2.2e-4,-3.22e-4 1.79932,-2.634704 3.56671,-4.915858 5.30178,-6.843705 1.5e-4,-1.62e-4 2.9e-4,-3.25e-4 4.4e-4,-4.87e-4 1.79923,-1.991974 3.43757,-3.598457 4.91553,-4.819372 1.2e-4,-10e-5 2.4e-4,-1.99e-4 3.6e-4,-2.98e-4 1.4779,-1.220851 2.60248,-1.95959 3.3736,-2.216622 1.2e-4,-4.2e-5 2.3e-4,-8.4e-5 3.5e-4,-1.26e-4 0.70676,-0.256977 1.34941,-0.38538 1.9277,-0.38538 1.9e-4,0 3.8e-4,0 5.6e-4,0 1.15639,2.19e-4 1.73473,0.67483 1.73473,2.024166 0,1.88e-4 0,3.76e-4 0,5.65e-4 -1.5e-4,0.578483 -0.22519,1.606402 -0.67489,3.084 -4e-5,1.2e-4 -7e-5,2.4e-4 -1.1e-4,3.61e-4 -0.44987,1.47804 -1.22104,3.438053 -2.31345,5.879901 -5e-5,1.04e-4 -10e-5,2.09e-4 -1.5e-4,3.13e-4 -1.22095,2.57045 -2.21715,4.915826 -2.9883,7.036466 -6e-5,1.67e-4 -1.2e-4,3.34e-4 -1.7e-4,5.02e-4 -0.70679,2.056245 -1.06023,3.82354 -1.06023,5.301501 0,1.67e-4 0,3.34e-4 0,5.02e-4 10e-5,1.028049 0.32174,2.024136 0.96429,2.987946 10e-5,1.57e-4 2.1e-4,3.13e-4 3.1e-4,4.7e-4 0.64264,0.963653 1.60642,1.445436 2.8915,1.445436 1.8e-4,0 3.6e-4,0 5.3e-4,0 1.09237,-1.47e-4 2.34534,-0.450235 3.75893,-1.349788 1.2e-4,-7.9e-5 2.3e-4,-1.57e-4 3.5e-4,-2.36e-4 1.4137,-0.963925 2.89179,-2.152773 4.434,-3.566472 1.1e-4,-9.9e-5 2.1e-4,-1.97e-4 3.2e-4,-2.95e-4 1.31339,-1.208338 2.62662,-2.507192 3.94001,-3.887323 -10e-6,1.95e-4 -2e-5,3.91e-4 -4e-5,5.87e-4 -0.0181,0.30037 -0.0289,0.600304 -0.0289,0.8991 0,1.83e-4 0,3.66e-4 0,5.49e-4 9e-5,2.249013 0.57863,4.14422 1.7352897,5.686442 9e-5,1.2e-4 1.9e-4,2.4e-4 2.8e-4,3.6e-4 1.15676,1.477841 2.89176,2.217076 5.20509,2.217076 1.7e-4,0 3.5e-4,0 5.2e-4,0 2.12052,-1e-4 4.08048996,-0.610492 5.87974,-1.831412 1.5e-4,-1.05e-4 3e-4,-2.1e-4 4.5e-4,-3.14e-4 1.86349,-1.285214 3.53421,-2.763297 5.01217,-4.434042 0,1.3e-4 0,2.61e-4 0,3.92e-4 7e-5,1.606457 0.44964,3.052147 1.34927,4.337328 7e-5,1.04e-4 1.5e-4,2.09e-4 2.2e-4,3.13e-4 0.89971,1.285078 2.3136103,1.927735 4.2413803,1.927735 1.6e-4,0 3.1e-4,0 4.7e-4,0 1.92785,-2.15e-4 4.305539,-1.317589 7.132939,-3.952214 1.2e-4,-1.08e-4 2.3e-4,-2.15e-4 3.5e-4,-3.22e-4 2.82757,-2.634814 6.361861,-6.265708 10.603141,-10.892552 1.3e-4,-1.26e-4 2.5e-4,-2.51e-4 3.8e-4,-3.77e-4 0.38534,-0.385504 0.57788,-0.835467 0.57788,-1.349411 0,-1.47e-4 0,-2.93e-4 0,-4.4e-4 -1.3e-4,-0.449687 -0.1928,-0.867255 -0.57826,-1.252714 -10e-5,-1.47e-4 -2.1e-4,-2.93e-4 -3.1e-4,-4.4e-4 -0.32129,-0.449553 -0.7389,-0.673938 -1.25284,-0.673938 -1.7e-4,0 -3.3e-4,0 -5e-4,0 -0.25685,4.1e-5 -0.48173,0.03189 -0.6744,0.09612 -1.3e-4,4.2e-5 -2.5e-4,8.3e-5 -3.8e-4,1.25e-4 -0.19274,0.0644 -0.44951,0.257023 -0.77063,0.578135 -9e-5,1.04e-4 -1.9e-4,2.09e-4 -2.8e-4,3.14e-4 -0.57841,0.642687 -1.54221,1.735426 -2.89153,3.277521 -1.1e-4,1.2e-4 -2.2e-4,2.4e-4 -3.3e-4,3.61e-4 -1.34946,1.477966 -2.795691,2.987897 -4.337911,4.530113 -1.3e-4,1.25e-4 -2.5e-4,2.51e-4 -3.8e-4,3.76e-4 -1.54221,1.542195 -3.05213,2.923662 -4.530089,4.144589 -1.2e-4,9.4e-5 -2.3e-4,1.88e-4 -3.5e-4,2.82e-4 -1.41364,1.156573 -2.50586,1.735014 -3.27697,1.735014 -1.9e-4,0 -3.8e-4,0 -5.6e-4,0 -0.57811,-1.47e-4 -1.02801,-0.225188 -1.34923,-0.674894 -10e-5,-1.68e-4 -2.1e-4,-3.35e-4 -3.1e-4,-5.02e-4 -0.32111,-0.51401 -0.48131,-1.124228 -0.48131,-1.830912 0,-1.47e-4 0,-2.93e-4 0,-4.4e-4 5e-5,-0.899626 0.16035,-2.024181 0.48162,-3.373513 3e-5,-1.15e-4 6e-5,-2.3e-4 9e-5,-3.46e-4 0.38558,-1.413704 0.86749,-2.859415 1.44582,-4.337373 7e-5,-1.15e-4 1.4e-4,-2.3e-4 2e-4,-3.46e-4 0.83537,-1.413705 1.67073,-2.859926 2.5061,-4.337892 7e-5,-1.21e-4 1.4e-4,-2.41e-4 2e-4,-3.61e-4 0.83536,-1.477943 1.574639,-2.859424 2.217239,-4.144604 6e-5,-1.1e-4 1.2e-4,-2.2e-4 1.7e-4,-3.3e-4 0.70683,-1.349419 1.2848,-2.538236 1.73461,-3.566378 8e-5,-1.78e-4 1.7e-4,-3.56e-4 2.5e-4,-5.34e-4 0.51398,-1.092222 0.86739,-1.89511 1.06015,-2.409138 8e-5,-1.68e-4 1.7e-4,-3.35e-4 2.5e-4,-5.02e-4 0.0642,-0.128367 0.12831,-0.256645 0.1925,-0.385006 4e-5,-1.26e-4 8e-5,-2.51e-4 1.3e-4,-3.77e-4 0.0642,-0.192663 0.0965,-0.385213 0.0965,-0.57788 0,-2.1e-4 0,-4.19e-4 0,-6.28e-4 -2.1e-4,-0.32107 -0.16102,-0.610127 -0.48214,-0.867021 -8e-5,-8.4e-5 -1.7e-4,-1.68e-4 -2.5e-4,-2.51e-4 -0.25697,-0.256933 -0.51378,-0.45004 -0.77076,-0.578525 -1.3e-4,-8.4e-5 -2.5e-4,-1.68e-4 -3.8e-4,-2.51e-4 -0.19321,-0.128526 -0.80348,-0.321116 -1.83103,-0.578009 -1.6e-4,-5.3e-5 -3.1e-4,-1.05e-4 -4.7e-4,-1.57e-4 -0.963909,-0.321214 -2.216899,-0.481466 -3.758989,-0.481466 -1.2e-4,0 -2.4e-4,0 -3.6e-4,0 -2.95604,6e-5 -5.9123103,0.738898 -8.8683503,2.216919 -1.2e-4,6e-5 -2.4e-4,1.2e-4 -3.5e-4,1.8e-4 -2.89176,1.478053 -5.49402004,3.373902 -7.80744,5.687328 -8e-5,7.9e-5 -1.6e-4,1.59e-4 -2.4e-4,2.38e-4 -1.95466,1.954698 -3.58473,4.118092 -4.89714,6.48567 -1.3e-4,1.19e-4 -2.6e-4,2.38e-4 -3.9e-4,3.57e-4 -0.0249,0.02277 -0.0502,0.04405 -0.0745,0.06837 -10e-5,1.15e-4 -2.1e-4,2.3e-4 -3.1e-4,3.45e-4 -1.2852,1.41372 -2.6666997,2.924169 -4.1446597,4.530644 -1.2e-4,1.3e-4 -2.4e-4,2.61e-4 -3.6e-4,3.92e-4 -1.47795,1.606462 -2.89179,3.084008 -4.24124,4.433446 -1.1e-4,1.09e-4 -2.2e-4,2.19e-4 -3.3e-4,3.29e-4 -1.34942,1.349408 -2.60246,2.474 -3.75913,3.373624 -9e-5,7.3e-5 -1.9e-4,1.46e-4 -2.8e-4,2.19e-4 -1.15662,0.899562 -2.02381,1.349571 -2.60214,1.349571 -1.3e-4,0 -2.5e-4,-1e-6 -3.8e-4,-1e-6 -0.19254,-3.34e-4 -0.28901,-0.257226 -0.28901,-0.771013 0,-1.78e-4 0,-3.56e-4 0,-5.34e-4 1.3e-4,-1.092456 0.386,-2.634705 1.15703,-4.626573 6e-5,-1.68e-4 1.3e-4,-3.35e-4 1.9e-4,-5.02e-4 0.77113,-2.056291 1.60649,-4.112855 2.50612,-6.169148 5e-5,-1.21e-4 10e-5,-2.41e-4 1.6e-4,-3.61e-4 1.2852,-2.95598 2.15244,-5.205262 2.60226,-6.747546 4e-5,-1.31e-4 8e-5,-2.62e-4 1.3e-4,-3.93e-4 0.51403,-1.606424 0.7714,-2.859443 0.7714,-3.759068 0,-1.42e-4 0,-2.83e-4 0,-4.24e-4 -8e-5,-1.734934 -0.48254,-3.116394 -1.44642,-4.144542 -8e-5,-8.4e-5 -1.6e-4,-1.68e-4 -2.4e-4,-2.51e-4 -0.96395,-1.028059 -2.31309,-1.541775 -4.04809,-1.541775 -1.5e-4,0 -2.9e-4,0 -4.4e-4,0 -0.89958,5.2e-5 -1.89569,0.160358 -2.98801,0.481627 -1.8e-4,6.2e-5 -3.6e-4,1.25e-4 -5.3e-4,1.88e-4 -1.09243,0.38569 -2.53807,1.285287 -4.33719,2.698871 -1.4e-4,1.15e-4 -2.8e-4,2.3e-4 -4.2e-4,3.45e-4 -1.73501,1.413757 -3.53418,3.149245 -5.3977,5.205539 0,0 5e-5,-1.34e-4 1.4e-4,-3.98e-4 0.0119,-0.03361 1.15638,-3.277438 1.15638,-3.277438 0,0 4e-5,-4.5e-5 1.2e-4,-1.35e-4 0.0199,-0.02292 3.85598,-4.434221 3.85598,-4.434221 0,0 6e-5,-6.7e-5 1.8e-4,-2e-4 0.0299,-0.03387 5.78344,-6.554439 5.78344,-6.554439 1.2e-4,-1.31e-4 2.3e-4,-2.62e-4 3.5e-4,-3.93e-4 1.41369,-1.606492 2.76331,-3.2772214 4.0485,-5.0122185 1.1e-4,-1.47e-4 2.2e-4,-2.93e-4 3.3e-4,-4.4e-4 1.34941,-1.7992418 2.53822,-3.5341889 3.56638,-5.2049254 9e-5,-1.42e-4 1.8e-4,-2.83e-4 2.7e-4,-4.24e-4 1.09237,-1.73496997 2.02379,-3.30961388 2.79491,-4.7233118 6e-5,-1.2e-4 1.3e-4,-2.3e-4 1.9e-4,-3.5e-4 0.77107,-1.41366 1.31718,-2.5701 1.63847,-3.4697302 6e-5,-1.8e-4 1.3e-4,-3.7e-4 1.9e-4,-5.6e-4 0.19266,-0.5783001 0.28919,-1.3169501 0.28919,-2.2163501 0,-2.1e-4 0,-4.2e-4 0,-6.3e-4 -1.4e-4,-1.28505 -0.41785,-2.47377 -1.25315,-3.566081 -1.3e-4,-1.8e-4 -2.5e-4,-3.6e-4 -3.8e-4,-5.4e-4 -0.77114,-1.09214 -1.83149,-1.63864 -3.18082,-1.63864 0,0 10e-6,0 10e-6,0 0,0 10e-6,0 10e-6,0 m 0,2.506301 m 0,1.25316 c 0.0858,0 0.13963,0.0536 0.16122,0.16071 0.1711,2.6e-4 0.27817,0.10753 0.32099,0.32159 0.0428,0.10706 0.0642,0.21422 0.0642,0.32127 0.0857,0.21429 0.1285,0.42878 0.1285,0.64307 -2e-5,0.14987 -0.0214,0.28904 -0.0643,0.4175 0,0.2999 -0.0428,0.57838 -0.1285,0.83544 -0.0857,0.27861 -0.32143,0.7499001 -0.70706,1.4141002 -0.17148,0.5570001 -0.64276,1.4991801 -1.41375,2.82698 -0.36425,0.6642201 -0.89989,1.4784141 -1.60688,2.44253999 -0.72832,1.32804391 -1.79934,2.95593491 -3.21297,4.88362581 -0.29998,0.428536 -0.63213,0.8571457 -0.99637,1.2856784 -0.59975,0.8567584 -1.26384,1.7136641 -1.99208,2.5704155 -0.36426,0.4285327 -0.76048,0.8891714 -1.189,1.3819684 -0.72826,0.8567687 -1.52044,1.7777317 -2.37719,2.7629977 0.68557,-1.62823 1.28542,-2.9672107 1.79962,-4.0170601 1.37087,-3.2557922 2.57033,-5.9331558 3.5985,-8.03232977 0.5356,-1.07120294 0.98541,-1.87474583 1.34964,-2.41040583 1.07103,-2.14203 1.97051,-3.7488001 2.69885,-4.8198903 0.44979,-0.6639 0.84604,-0.9959 1.18874,-0.9959 0.8997,-1.32813 1.69231,-1.9923 2.3778,-1.9923 M -39.173904,0.90524013 M -86.065786,21.791474 c 0.21432,0 0.42885,0.02123 0.64317,0.06408 0.107,2e-5 0.21411,0.01064 0.32111,0.03204 0.25712,0 0.49251,0.02158 0.70678,0.06442 0.12846,1e-5 0.24606,0.0108 0.35311,0.03221 -0.51414,0.899758 -1.178,2.099354 -1.99205,3.598912 -0.25704,0.449834 -0.58892,1.04955 -0.99588,1.79921 -0.81407,1.499593 -1.54269,3.063341 -2.18538,4.69146 -0.40695,0.749667 -0.77118,1.531404 -1.09246,2.345319 0,0 0,-0.06411 0,-0.06417 0,-0.0019 0,-0.03195 0,-0.03195 -0.42848,0.728417 -0.98549,1.563942 -1.67103,2.506572 -0.21419,0.364102 -0.49262,0.781731 -0.83528,1.252887 -0.64268,0.899758 -1.37094,1.756477 -2.185,2.570551 -0.32129,0.449792 -0.68536,0.878069 -1.09232,1.285029 -0.77121,0.814063 -1.58511,1.499516 -2.44202,2.056525 -0.38554,0.406942 -0.79242,0.749594 -1.2208,1.02804 -0.856914,0.514146 -1.713984,0.77142 -2.570894,0.771451 -0.42838,0.256995 -0.85683,0.385585 -1.28521,0.385585 -0.68557,0 -1.19979,-0.257242 -1.54262,-0.771358 -0.34262,-6.3e-5 -0.5996,-0.128683 -0.77093,-0.385678 -0.34278,-0.557028 -0.51409,-1.199683 -0.51413,-1.92808 -0.17129,-0.278433 -0.25688,-0.599659 -0.25688,-0.963734 0,-1.413903 0.38569,-2.913246 1.15686,-4.498519 5e-5,-0.706833 0.19289,-1.456374 0.57843,-2.248871 0.0425,-0.08279 0.0883,-0.163791 0.13207,-0.245879 0.0212,-0.04127 0.044,-0.08165 0.0658,-0.122575 0.13695,-0.15149 0.23311,-0.323367 0.28649,-0.516641 0.0683,-0.07565 0.11631,-0.161482 0.14294,-0.257987 0.74585,-1.292405 1.65446,-2.496111 2.73072,-3.608286 0.37288,-0.646074 0.82712,-1.247808 1.36516,-1.803788 1.285334,-1.371016 2.742154,-2.484969 4.370224,-3.341868 0.64261,-0.685429 1.37097,-1.242343 2.18493,-1.670745 1.67092,-0.899726 3.36308,-1.349499 5.07685,-1.349527 0.83538,-0.449794 1.68139,-0.674639 2.53819,-0.674639 0,0 0,4e-6 0,4e-6 0,0 0,0 0,0 m 33.136312,0 m 66.27261,0 c 0.21432,0 0.42885,0.02123 0.64317,0.06408 0.107,2e-5 0.21411,0.01064 0.32111,0.03204 0.25712,0 0.49285,0.02158 0.70712,0.06442 0.12846,1e-5 0.24623,0.0108 0.35328,0.03221 -0.51414,0.899758 -1.17835,2.099354 -1.99239,3.598912 -0.25705,0.449834 -0.5891,1.04955 -0.99606,1.79921 -0.81406,1.499593 -1.54234,3.063341 -2.18503,4.69146 -0.4069503,0.749667 -0.7710103,1.531404 -1.0922903,2.345319 0,0 0,-0.06411 0,-0.06417 0,-0.0019 0,-0.03195 0,-0.03195 -0.42848,0.728417 -0.98549,1.563942 -1.67102,2.506572 -0.2142,0.364102 -0.49262,0.781731 -0.83528,1.252887 -0.64269,0.899758 -1.37129,1.756477 -2.18534,2.570551 -0.3213,0.449792 -0.68554,0.878069 -1.0925,1.285029 -0.77122,0.814063 -1.58512,1.499516 -2.44202004,2.056525 -0.38555,0.406942 -0.79243,0.749594 -1.2208,1.02804 -0.85690996,0.514146 -1.71397996,0.77142 -2.57088996,0.771451 -0.42838,0.256995 -0.85683,0.385585 -1.28521,0.385585 -0.68557,0 -1.19979,-0.257242 -1.54262,-0.771358 -0.34262,-6.3e-5 -0.5996,-0.128683 -0.77093,-0.385678 -0.34279,-0.557028 -0.5141,-1.199683 -0.51414,-1.92808 -0.17129,-0.278433 -0.25688,-0.599659 -0.25688,-0.963734 0,-1.413903 0.38569,-2.913246 1.15687,-4.498519 4e-5,-0.706833 0.19289,-1.456374 0.57843,-2.248871 0.81406,-1.585285 1.86363,-3.042165 3.14896,-4.370395 0.40699,-0.792481 0.9317,-1.520776 1.57425996,-2.184761 1.28533,-1.371016 2.74215004,-2.484969 4.37022004,-3.341868 0.64262,-0.685429 1.37097,-1.242343 2.18494,-1.670745 1.67092,-0.899726 3.36308,-1.349499 5.0768503,-1.349527 0.83538,-0.449794 1.68138,-0.674639 2.53819,-0.674639 0,0 0,4e-6 0,4e-6 0,0 0,0 0,0"
       style="font-style:normal;font-variant:normal;font-weight:bold;font-stretch:normal;font-size:96.39656067px;line-height:1.25;font-family:'Learning Curve';-inkscape-font-specification:'Learning Curve, Bold';font-variant-ligatures:normal;font-variant-caps:normal;font-variant-numeric:normal;font-feature-settings:normal;text-align:start;letter-spacing:0px;word-spacing:0px;writing-mode:lr-tb;text-anchor:start;opacity:1;fill:#d2c1fd;fill-opacity:1;stroke:#d2c1fd;stroke-width:0.79374999;stroke-linecap:round;stroke-linejoin:round;stroke-miterlimit:4;stroke-dasharray:none;stroke-opacity:1;filter:url(#filter893)"
       id="path860" />
    <path
       style="font-style:normal;font-variant:normal;font-weight:bold;font-stretch:normal;font-size:96.39656067px;line-height:1.25;font-family:'Learning Curve';-inkscape-font-specification:'Learning Curve, Bold';font-variant-ligatures:normal;font-variant-caps:normal;font-variant-numeric:normal;font-feature-settings:normal;text-align:start;letter-spacing:0px;word-spacing:0px;writing-mode:lr-tb;text-anchor:start;opacity:0.1;fill:#000000;fill-opacity:1;stroke:none;stroke-width:2.06718111"
       d="m -23.462846,-8.752665 c -0.771747,0 -1.708728,0.330983 -2.811227,0.992488 -1.047369,0.661496 -2.039437,1.6813391 -2.976563,3.0594597 -1.102491,1.763994 -2.673682,4.79573986 -4.713299,9.0954746 -1.984496,4.2997356 -4.382477,9.8674187 -7.19385,16.7029007 -1.157619,1.322991 -2.425594,2.75623 -3.803706,4.29973 -1.340645,1.447895 -2.787646,3.108263 -4.336972,4.973503 -0.05807,0.0468 -0.115552,0.09649 -0.171986,0.152929 -2.921614,3.41774 -5.815856,6.256893 -8.68235,8.517011 -2.811372,2.204994 -5.677848,3.307247 -8.599463,3.307247 -2.31524,0 -3.472585,-1.378147 -3.472585,-4.134391 0,-1.98449 0.633763,-4.299621 1.901634,-6.945614 1.267871,-2.64599 3.114513,-5.126393 5.540004,-7.441639 1.26787,-1.267869 2.452981,-1.902076 3.555472,-1.902076 0.661504,0 1.10267,0.275892 1.323171,0.827144 0.275623,0.496124 0.413572,1.04703 0.413572,1.653402 0,0.110247 -0.02779,0.193103 -0.08286,0.248231 v 0.248232 c -0.05516,0.110247 -0.08244,0.275518 -0.08244,0.496021 v 0.578913 c 0,0.441002 0.137511,0.826636 0.413134,1.15738 0.330743,0.275628 0.744151,0.413571 1.240276,0.413571 0.771737,2e-6 1.240678,-0.330983 1.40605,-0.992483 0.220501,-0.661499 0.330684,-1.29526 0.330684,-1.901634 0,-1.708872 -0.38608,-3.114342 -1.157826,-4.216839 -0.771746,-1.157617 -2.039721,-1.736735 -3.803715,-1.736735 -1.929366,0 -3.886182,0.909662 -5.870678,2.728777 -2.535741,2.425494 -4.54766,5.181788 -6.036024,8.26878 -0.08569,0.17452 -0.168374,0.348047 -0.249117,0.521288 -0.102839,0.07987 -0.215518,0.17961 -0.34132,0.305414 -0.496124,0.551249 -1.322923,1.488671 -2.48056,2.811668 -1.15762,1.267872 -2.39826,2.563166 -3.72125,3.88616 -1.32299,1.322996 -2.61829,2.508102 -3.88616,3.555476 -1.21275,0.992249 -2.14973,1.488506 -2.81123,1.488506 -0.49612,0 -0.8822,-0.193036 -1.15783,-0.578912 -0.27562,-0.440998 -0.41313,-0.964576 -0.41313,-1.570954 0,-0.771746 0.13752,-1.736495 0.41313,-2.894116 0.33076,-1.212745 0.74415,-2.452949 1.24027,-3.720819 0.71663,-1.212745 1.43325,-2.453386 2.14987,-3.721262 0.71663,-1.26787 1.35083,-2.452983 1.90209,-3.555477 0.60636,-1.157625 1.10218,-2.177465 1.48804,-3.059459 0.44101,-0.937121 0.74423,-1.625977 0.9096,-2.066973 0.0551,-0.110255 0.11021,-0.220432 0.16535,-0.330682 0.0551,-0.165371 0.0829,-0.330644 0.0829,-0.496019 0,-0.275623 -0.13795,-0.52375 -0.41358,-0.744253 -0.22049,-0.2205 -0.44086,-0.386215 -0.66136,-0.496464 -0.16536,-0.110247 -0.68895,-0.275519 -1.57094,-0.496021 -0.82688,-0.275621 -1.90181,-0.413128 -3.2248,-0.413128 -2.53575,0 -5.07168,0.633762 -7.60742,1.901634 -2.48062,1.267869 -4.71289,2.894146 -6.69738,4.878642 -1.72946,1.729451 -3.16573,3.647408 -4.30905,5.75366 -3.36369,3.791247 -6.13747,6.644361 -8.31665,8.551145 -2.20499,1.929369 -3.74841,2.894117 -4.63041,2.894117 -0.11025,0 -0.16535,-0.13795 -0.16535,-0.413571 0,-0.882001 0.30323,-2.122202 0.9096,-3.720817 0.60637,-1.598621 1.24013,-3.169811 1.90163,-4.713304 l 0.49647,-1.157381 c 0.77175,-1.819123 1.43327,-3.528255 1.98452,-5.126875 0.60637,-1.598621 0.90959,-3.004095 0.90959,-4.216839 0,-1.21275 -0.3583,-2.205263 -1.07493,-2.977009 -0.66149,-0.771746 -1.68133,-1.15738 -3.05944,-1.15738 -2.31525,0 -4.60306,0.936983 -6.86317,2.811225 -2.26012,1.819121 -4.43774,4.07916 -6.53249,6.780276 0.11025,-0.661498 0.1931,-1.26794 0.24823,-1.819186 0.0551,-0.606378 0.0825,-1.212369 0.0825,-1.818741 0,-0.661498 -0.0825,-1.323026 -0.24779,-1.984525 -0.11024,-0.716619 -0.33061,-1.378154 -0.66136,-1.984526 -0.33074,-0.606376 -0.79968,-1.102635 -1.40605,-1.488503 -0.55125,-0.385877 -1.2401,-0.578914 -2.06698,-0.578914 -1.48837,0 -3.05955,0.661528 -4.71331,1.984528 -1.65374,1.322994 -3.28002,2.976598 -4.87863,4.961089 0.0551,-0.275622 0.0829,-0.551078 0.0829,-0.826701 0.0551,-0.330749 0.0829,-0.633969 0.0829,-0.909592 0,-1.157621 -0.33099,-2.259871 -0.99248,-3.307247 -0.60638,-1.102494 -1.62622,-1.653845 -3.05946,-1.653845 -1.37812,0 -2.70117,0.578671 -3.96905,1.736296 -0.38588,0.385872 -1.1025,1.157587 -2.14987,2.315204 -0.99224,1.102494 -2.14959,2.425551 -3.47258,3.96905 -0.58758,0.689764 -1.19736,1.408782 -1.82051,2.145876 -2.09167,2.044739 -0.012,4.854426 1.7886,2.902982 1.0735,-1.257464 2.08852,-2.456419 3.00846,-3.560354 1.15764,-1.378124 2.17746,-2.56323 3.05946,-3.555477 0.88201,-0.992241 1.48844,-1.626449 1.81918,-1.902077 0.60638,-0.606373 1.15773,-0.909593 1.65385,-0.909593 0.38588,0 0.63357,0.220806 0.74381,0.661804 0.11025,0.385876 0.16534,0.799276 0.16534,1.240272 0,1.102496 -0.22037,2.342699 -0.66136,3.720818 -0.38588,1.322993 -0.88214,2.728467 -1.4885,4.216839 -0.60638,1.488373 -1.29523,2.977142 -2.06698,4.465514 -0.71663,1.433246 -1.40548,2.755866 -2.06698,3.968607 -0.44099,0.606374 -0.7993,1.212809 -1.07493,1.819187 -0.27562,0.551243 -0.41357,1.074828 -0.41357,1.570952 0,0.330751 0.11019,0.661734 0.33068,0.992485 0.27564,0.38587 0.68903,0.578912 1.24029,0.578912 0.27562,0 0.57884,-0.137953 0.90959,-0.413572 0.33075,-0.275623 0.57887,-0.55108 0.74425,-0.826701 0.82687,-1.653747 1.95688,-3.721188 3.39014,-6.201809 1.43324,-2.535737 2.94934,-4.988822 4.54796,-7.359188 1.65374,-2.370367 3.27958,-4.382275 4.87819,-6.036022 1.65374,-1.708869 3.11475,-2.563438 4.38262,-2.563438 0.55125,0 0.88179,0.330985 0.99206,0.992484 0.11025,0.661499 0.16533,1.295263 0.16533,1.901633 0,1.59862 -0.27545,3.445261 -0.8267,5.540004 -0.49612,2.094744 -1.07479,4.107098 -1.73629,6.036466 -0.2205,0.440998 -0.52372,1.019674 -0.90959,1.736296 -0.38588,0.661496 -0.77195,1.378117 -1.15783,2.149863 -0.38587,0.716626 -0.71642,1.405475 -0.99204,2.066974 -0.27562,0.661497 -0.41357,1.157755 -0.41357,1.488506 0,0.440996 0.13795,0.827073 0.41357,1.157823 0.27562,0.385871 0.71635,0.578469 1.32272,0.578469 0.27563,0 0.63394,-0.110184 1.07494,-0.330679 0.38586,-0.275624 0.9099,-1.130188 1.57139,-2.56344 0.71663,-1.488365 1.43325,-3.197061 2.14987,-5.12643 1.04736,-1.59862 2.23248,-3.30731 3.55547,-5.126432 1.323,-1.81912 2.70115,-3.500488 4.1344,-5.043983 1.43324,-1.543493 2.83871,-2.811463 4.21683,-3.803709 1.43325,-1.047376 2.72898,-1.570954 3.88661,-1.570954 0.60636,0 0.90959,0.303217 0.90959,0.909593 0,1.047368 -0.33099,2.452845 -0.99248,4.216839 -0.6615,1.763995 -1.35036,3.418041 -2.06697,4.961534 -0.882,1.92937 -1.6264,3.748239 -2.23277,5.457112 -0.60636,1.653741 -0.90959,3.08698 -0.90959,4.299731 0,1.047368 0.27546,1.929259 0.8267,2.645886 0.55124,0.661498 1.40583,0.992485 2.56344,0.992485 2.08382,0 5.61751,-2.504479 10.58842,-7.491285 -0.0201,0.29291 -0.0301,0.585182 -0.0301,0.876348 0,1.92937 0.49625,3.555201 1.48851,4.878199 0.99224,1.267871 2.48058,1.902076 4.46506,1.902076 1.81912,0 3.50049,-0.523583 5.04398,-1.570952 1.59862,-1.102496 3.03186,-2.370459 4.29972,-3.803711 0,1.378125 0.38564,2.618325 1.15738,3.720819 0.77176,1.102495 1.98463,1.653844 3.63839,1.653844 1.65374,0 3.69341,-1.13002 6.1189,-3.390138 1.50025,-1.397957 3.23358,-3.12478 5.197809,-5.17652 -0.03835,0.434871 -0.05987,0.864998 -0.05987,1.289918 0,2.094743 0.52402,3.85897 1.571397,5.292215 0.99224,1.378125 2.618081,2.066974 4.8782,2.066974 1.874245,0 3.665791,-0.358307 5.374656,-1.074934 1.708873,-0.661496 3.362918,-1.570716 4.961541,-2.728333 1.598614,-1.212748 3.169358,-2.590896 4.712861,-4.134391 1.481466,-1.481468 2.989112,-3.041365 4.52136,-4.675181 0.08012,-0.05912 0.158742,-0.12638 0.235822,-0.203461 l 2.067417,-2.315205 -3.803714,9.591503 c -0.330744,0.771745 -0.689057,1.626315 -1.074929,2.563436 -0.385874,0.881999 -0.578909,1.488436 -0.578909,1.819185 0,0.71662 0.303217,1.157347 0.909592,1.322722 0.551254,0.2205 0.881792,0.331122 0.992042,0.331122 0.496124,0 0.909961,-0.358307 1.240713,-1.074934 0.385874,-0.716615 0.71642,-1.461003 0.992043,-2.232755 l 0.49602,-1.488504 c 1.157621,-2.645994 2.480681,-5.09907 3.969053,-7.359189 1.543493,-2.260119 3.059589,-4.216944 4.547961,-5.870684 1.543492,-1.708872 2.94896,-3.087024 4.216831,-4.134389 1.267871,-1.047376 2.232617,-1.681139 2.894122,-1.901635 0.606367,-0.220501 1.157723,-0.330679 1.653847,-0.330679 0.992248,0 1.488501,0.578669 1.488501,1.736293 0,0.496123 -0.193036,1.378015 -0.578909,2.645885 -0.385873,1.267873 -1.047404,2.94924 -1.98453,5.043983 -1.04737,2.204991 -1.901935,4.216903 -2.56344,6.036024 -0.606365,1.763994 -0.909591,3.280092 -0.909591,4.547963 0,0.881995 0.275896,1.736564 0.82715,2.563437 0.551246,0.826874 1.378044,1.240272 2.480544,1.240272 0.937118,0 2.012048,-0.386077 3.224797,-1.157823 1.21274,-0.826874 2.480714,-1.846714 3.803706,-3.059458 1.126696,-1.036562 2.253248,-2.150781 3.379945,-3.33473 -0.01552,0.257821 -0.02479,0.515267 -0.02479,0.771736 0,1.92937 0.496262,3.555201 1.488501,4.878199 0.992249,1.267871 2.480578,1.902076 4.465074,1.902076 1.819116,0 3.5004877,-0.523583 5.0439817,-1.570952 1.598623,-1.102496 3.031865,-2.370459 4.299736,-3.803711 0,1.378125 0.385633,2.618325 1.157379,3.720819 0.771747,1.102495 1.984625,1.653844 3.63836802,1.653844 1.65374498,0 3.69342198,-1.13002 6.11891198,-3.390138 2.425491,-2.260118 5.4572443,-5.374726 9.0954843,-9.343713 0.330753,-0.33075 0.496022,-0.716827 0.496022,-1.157823 0,-0.385878 -0.165269,-0.744186 -0.496022,-1.074933 -0.27563,-0.385871 -0.633935,-0.57847 -1.074929,-0.57847 -0.220502,0 -0.413537,0.02732 -0.578918,0.08244 -0.165372,0.05513 -0.385727,0.220398 -0.661358,0.496022 -0.496124,0.551249 -1.322932,1.488671 -2.480543,2.811667 -1.1576203,1.267873 -2.3982653,2.563167 -3.7212653,3.88616 -1.322991,1.322997 -2.618285,2.508102 -3.886156,3.555477 -1.212741,0.992249 -2.14973,1.488506 -2.81122698,1.488506 -0.496123,0 -0.882202,-0.193036 -1.157825,-0.578912 -0.275623,-0.440998 -0.413125,-0.964577 -0.413125,-1.570954 0,-0.771746 0.137502,-1.736496 0.413125,-2.894117 0.330753,-1.212745 0.744152,-2.452948 1.240276,-3.720818 0.71661598,-1.212745 1.43323398,-2.453386 2.14985898,-3.721262 0.716625,-1.267871 1.350826,-2.452983 1.90208,-3.555477 0.606375,-1.157625 1.102191,-2.177465 1.488063,-3.059459 0.440995,-0.937122 0.744221,-1.625977 0.909593,-2.066974 0.05516,-0.110254 0.110208,-0.220431 0.165337,-0.330681 0.05516,-0.165371 0.08286,-0.330644 0.08286,-0.496019 0,-0.275623 -0.137939,-0.52375 -0.413571,-0.744254 -0.220493,-0.220499 -0.440857,-0.386215 -0.661358,-0.496463 -0.165372,-0.110247 -0.688963,-0.275519 -1.570952,-0.496021 -0.826875,-0.275621 -1.901805,-0.413128 -3.224797,-0.413128 -2.53574098,0 -5.07168,0.633762 -7.607421,1.901634 -2.480619,1.267869 -4.7128947,2.894146 -6.6973817,4.878642 -1.676767,1.676758 -3.075081,3.532547 -4.200885,5.563496 -0.02144,0.01965 -0.04332,0.03798 -0.06425,0.05896 -1.102499,1.212748 -2.28761,2.508483 -3.555482,3.886601 -1.26787,1.378124 -2.480739,2.64565 -3.638368,3.803266 -1.15762,1.157624 -2.23255,2.122374 -3.224797,2.894117 -0.992249,0.771754 -1.736186,1.157826 -2.23231,1.157826 -0.165371,0 -0.248234,-0.220358 -0.248234,-0.661362 0,-0.937117 0.330993,-2.260183 0.992481,-3.96905 0.661504,-1.763993 1.378121,-3.52822 2.149867,-5.292215 1.102499,-2.53574 1.846445,-4.465237 2.23231,-5.788234 0.441003,-1.378124 0.661804,-2.453053 0.661804,-3.224798 0,-1.488367 -0.413845,-2.673479 -1.240713,-3.555478 -0.826876,-0.881994 -1.984213,-1.322723 -3.472585,-1.322723 -0.771747,0 -1.626312,0.137508 -2.563439,0.413131 -0.937119,0.330748 -2.177317,1.10246 -3.720819,2.315205 -1.488372,1.21275 -3.031788,2.701518 -4.63041,4.465514 l 0.992041,-2.811669 3.307694,-3.803711 4.961086,-5.622453 c 1.212749,-1.378123 2.370532,-2.811357 3.473031,-4.2997294 1.15762,-1.5434921 2.177454,-3.0318232 3.05946,-4.4650683 0.937118,-1.4883688 1.736152,-2.8391928 2.397655,-4.05193777 0.661496,-1.21275091 1.129991,-2.20481793 1.405614,-2.97656483 0.165371,-0.496123 0.248225,-1.129888 0.248225,-1.9016341 0,-1.102499 -0.358304,-2.1223416 -1.07493,-3.0594596 -0.661496,-0.937127 -1.571156,-1.406051 -2.728777,-1.406051 z m 0,3.2247966 c 0.220501,0 0.358449,0.137949 0.413579,0.4135801 0.110242,0.275623 0.165338,0.551511 0.165338,0.8271419 0,0.3858731 -0.05507,0.7441771 -0.165338,1.07493 -0.220502,0.7166171 -0.826945,1.9290571 -1.819193,3.63792296 -0.937118,1.70887294 -2.315274,3.80364374 -4.134381,6.28425554 -0.771754,1.1025034 -1.626312,2.2051938 -2.563438,3.3076879 -0.937128,1.102496 -1.956524,2.287609 -3.059015,3.555479 1.763986,-4.1894884 3.307411,-7.6346356 4.630412,-10.3357515 1.378112,-2.75624097 2.535457,-4.8236859 3.472585,-6.2018068 1.157619,-1.708864 2.177453,-2.5634391 3.059451,-2.5634391 z M -83.79737,21.345889 c 0.27562,0 0.55152,0.02732 0.82714,0.08245 0.33075,0 0.63353,0.02776 0.90915,0.08289 -0.66149,1.157624 -1.51562,2.701042 -2.56299,4.630412 -1.04737,1.929369 -1.98481,3.941285 -2.81167,6.036024 v -0.08246 c -0.55124,0.937122 -1.26787,2.012054 -2.14987,3.224798 -0.82687,1.157623 -1.76385,2.259871 -2.81122,3.307247 -0.99225,1.047369 -2.03941,1.929259 -3.14191,2.645885 -1.1025,0.661498 -2.20519,0.992485 -3.30769,0.992485 -0.88199,0 -1.54353,-0.330987 -1.98452,-0.992485 -0.441,-0.716626 -0.66136,-1.543424 -0.66136,-2.480547 0,-1.819119 0.49625,-3.748172 1.4885,-5.78779 0.0547,-0.106415 0.11348,-0.210537 0.16977,-0.316053 0.17612,-0.194823 0.29977,-0.415877 0.36836,-0.664462 0.9596,-1.662802 2.12863,-3.211475 3.51337,-4.642381 1.65375,-1.763994 3.52815,-3.197235 5.62289,-4.299729 2.14987,-1.157618 4.32706,-1.736294 6.53205,-1.736294 z m 85.2711927,0 c 0.275623,0 0.55152,0.02732 0.827142,0.08245 0.330753,0 0.63397,0.02776 0.909592,0.08289 -0.661495,1.157624 -1.51607,2.701042 -2.56343798,4.630412 -1.04737,1.929369 -1.98435902,3.941285 -2.81122702,6.036024 v -0.08246 c -0.551245,0.937122 -1.26787,2.012054 -2.149859,3.224798 -0.826877,1.157623 -1.764295,2.259871 -2.811673,3.307247 -0.992247,1.047369 -2.039411,1.929259 -3.1419007,2.645885 -1.102499,0.661498 -2.205195,0.992485 -3.307694,0.992485 -0.881997,0 -1.543519,-0.330987 -1.984522,-0.992485 -0.441002,-0.716626 -0.661367,-1.543424 -0.661367,-2.480547 0,-1.819119 0.496262,-3.748172 1.488509,-5.78779 1.04737,-2.039619 2.39775,-3.914023 4.051494,-5.622896 1.6537517,-1.763994 3.5281527,-3.197235 5.6228987,-4.299729 2.149868,-1.157618 4.32704802,-1.736294 6.532045,-1.736294 z"
       id="path919"
       inkscape:connector-curvature="0"
       sodipodi:nodetypes="sccccccccssccscsccsscccscscccccscscscccccccscccscccsssscccscscccscccscccscsccccccccscscscccscscccccsssccccsscscccsscsssccscscscsccssscscsccscccccscscccccccsscccscscccscsccssccscscccccscscccccccscccscccccccsscccscsccccccccscscsscscccccccssccscccccscscccccssccccccccscscccs" />
    <path
       sodipodi:nodetypes="sccccccccssccscsccsscccscscccccscscscccccccscccscccsssscccscscccscccscccscsccccccccscscscccscscccccsssccccsscscccsscsssccscscscsccssscscsccscccccscscccccccsscccscscccscsccssccscscccccscscccccccscccscccccccsscccscsccccccccscscsscscccccccssccscccccscscccccssccccccccscscccs"
       inkscape:connector-curvature="0"
       id="path852"
       d="m -15.727893,-13.297335 c -0.8997,0 -1.99203,0.38586 -3.27732,1.15704 -1.22102,0.771171 -2.37757,1.960102 -3.47007,3.566712 -1.28528,2.05646 -3.11697,5.5908597 -5.49475,10.6034795 -2.31352,5.0126203 -5.10908,11.5034085 -8.38657,19.4721945 -1.34955,1.542339 -2.82775,3.213206 -4.43435,5.012614 -1.56292,1.687951 -3.24983,3.623603 -5.05603,5.798095 -0.0677,0.05456 -0.13471,0.112493 -0.2005,0.178284 -3.40601,3.984392 -6.78011,7.294269 -10.12186,9.929108 -3.27749,2.570576 -6.61922,3.85558 -10.02523,3.85558 -2.6991,0 -4.04833,-1.60664 -4.04833,-4.819861 0,-2.313514 0.73884,-5.012487 2.21692,-8.097179 1.47808,-3.084687 3.63089,-5.976334 6.45852,-8.675441 1.47808,-1.478079 2.85968,-2.217436 4.14496,-2.217436 0.77118,0 1.28549,0.321635 1.54255,0.964284 0.32132,0.578379 0.48214,1.220624 0.48214,1.92753 0,0.128526 -0.0324,0.22512 -0.0966,0.289388 v 0.289388 c -0.0643,0.128526 -0.0961,0.321198 -0.0961,0.57826 v 0.674894 c 0,0.514119 0.16031,0.963691 0.48163,1.349271 0.38558,0.321326 0.86753,0.48214 1.44591,0.48214 0.89969,3e-6 1.44638,-0.38586 1.63917,-1.157034 0.25706,-0.771173 0.38551,-1.510011 0.38551,-2.216919 0,-1.992199 -0.45009,-3.630692 -1.34979,-4.91598 -0.8997,-1.349547 -2.3779,-2.024681 -4.43436,-2.024681 -2.24925,0 -4.5305,1.060481 -6.84402,3.181201 -2.95616,2.827634 -5.30165,6.040914 -7.03678,9.639721 -0.0999,0.203454 -0.19629,0.405752 -0.29042,0.607716 -0.11989,0.09311 -0.25125,0.209389 -0.39791,0.35605 -0.57838,0.642646 -1.54226,1.735489 -2.891822,3.277835 -1.34955,1.478082 -2.79589,2.988133 -4.33823,4.530474 -1.54235,1.542346 -3.05239,2.923939 -4.53047,4.144965 -1.41382,1.156761 -2.50615,1.735296 -3.27732,1.735296 -0.57838,0 -1.02847,-0.225041 -1.34979,-0.674894 -0.32132,-0.514114 -0.48163,-1.1245 -0.48163,-1.831414 0,-0.899699 0.16031,-2.024401 0.48163,-3.373953 0.38559,-1.413814 0.86752,-2.85964 1.4459,-4.337719 0.83544,-1.413815 1.67087,-2.860151 2.50631,-4.338238 0.83544,-1.478079 1.57479,-2.85968 2.21744,-4.144965 0.70691,-1.349555 1.28492,-2.538482 1.73477,-3.566708 0.51412,-1.092494 0.86761,-1.89556 1.0604,-2.409672 0.0643,-0.128534 0.12849,-0.256979 0.19276,-0.385508 0.0643,-0.192789 0.0966,-0.385464 0.0966,-0.578257 0,-0.321321 -0.16082,-0.610587 -0.48214,-0.867649 -0.25706,-0.257058 -0.51396,-0.450249 -0.77101,-0.578776 -0.19279,-0.128526 -0.80318,-0.321199 -1.83141,-0.57826 -0.96397,-0.321318 -2.21712,-0.481623 -3.75946,-0.481623 -2.95617,0 -5.91255,0.738838 -8.86871,2.216919 -2.8919,1.478079 -5.494285,3.373988 -7.807795,5.687508 -2.0162,2.016188 -3.69059,4.252137 -5.02347,6.7076 -3.92139,4.419825 -7.15505,7.745978 -9.69553,9.968902 -2.57058,2.249252 -4.36989,3.373953 -5.39812,3.373953 -0.12853,0 -0.19276,-0.160822 -0.19276,-0.48214 0,-1.028234 0.3535,-2.474057 1.0604,-4.337719 0.70691,-1.863667 1.44575,-3.695356 2.21692,-5.494755 l 0.57878,-1.349272 c 0.8997,-2.120728 1.67091,-4.113231 2.31355,-5.976898 0.70691,-1.863667 1.0604,-3.502165 1.0604,-4.915977 0,-1.413822 -0.41771,-2.57089 -1.25315,-3.47059 -0.77117,-0.899699 -1.9601,-1.349271 -3.56671,-1.349271 -2.6991,0 -5.36622,1.092332 -8.00106,3.277319 -2.63484,2.120726 -5.17351,4.755473 -7.61555,7.904427 0.12852,-0.771173 0.22512,-1.478161 0.28938,-2.120802 0.0643,-0.706914 0.0961,-1.413377 0.0961,-2.120283 0,-0.771173 -0.0961,-1.542381 -0.28887,-2.313554 -0.12853,-0.835432 -0.38543,-1.606648 -0.77101,-2.313554 -0.38559,-0.706913 -0.93227,-1.285449 -1.63918,-1.735293 -0.64264,-0.449855 -1.4457,-0.674897 -2.40967,-0.674897 -1.73514,0 -3.56682,0.771208 -5.49476,2.313557 -1.92793,1.542343 -3.82384,3.47011 -5.6875,5.783624 0.0643,-0.32132 0.0966,-0.642445 0.0966,-0.963765 0.0643,-0.385586 0.0966,-0.73908 0.0966,-1.0604 0,-1.349552 -0.38587,-2.634552 -1.15704,-3.85558 -0.70691,-1.285285 -1.89583,-1.928048 -3.56671,-1.928048 -1.60661,0 -3.14902,0.674614 -4.6271,2.024169 -0.44985,0.449849 -1.28529,1.349512 -2.50631,2.699059 -1.15676,1.285285 -2.50599,2.8277 -4.04833,4.627107 -0.685,0.804125 -1.39588,1.642354 -2.12235,2.501657 -2.43845,2.38375 -0.014,5.659276 2.08514,3.384288 1.25149,-1.465948 2.43481,-2.863686 3.50728,-4.150651 1.34955,-1.606613 2.53848,-2.988207 3.56671,-4.144965 1.02823,-1.156753 1.73521,-1.89611 2.1208,-2.217436 0.70691,-0.706908 1.34967,-1.060402 1.92805,-1.060402 0.44985,0 0.7386,0.257416 0.86713,0.77153 0.12852,0.449853 0.19275,0.931794 0.19275,1.445906 0,1.285287 -0.2569,2.731111 -0.77101,4.337719 -0.44985,1.542341 -1.02839,3.180839 -1.7353,4.915979 -0.70691,1.735141 -1.50997,3.470744 -2.40967,5.205884 -0.83544,1.670875 -1.6385,3.21278 -2.40967,4.626591 -0.51412,0.706909 -0.93183,1.413889 -1.25316,2.120802 -0.32132,0.642639 -0.48214,1.253033 -0.48214,1.831412 0,0.385588 0.12845,0.771448 0.38551,1.157036 0.32132,0.449847 0.80326,0.674894 1.44591,0.674894 0.32132,0 0.67481,-0.160825 1.0604,-0.48214 0.38558,-0.321321 0.67485,-0.642448 0.86764,-0.963766 0.96397,-1.927934 2.28134,-4.33815 3.95222,-7.230052 1.67087,-2.956155 3.43833,-5.815954 5.302,-8.57932 1.92793,-2.763367 3.82332,-5.108845 5.68699,-7.036779 1.92793,-1.992194 3.63117,-2.988448 5.10925,-2.988448 0.64264,0 1.02799,0.385861 1.15652,1.157036 0.12853,0.771173 0.19275,1.510012 0.19275,2.216918 0,1.863666 -0.32112,4.016475 -0.96376,6.458521 -0.57838,2.442046 -1.253,4.788043 -2.02417,7.037295 -0.25706,0.514114 -0.61055,1.188733 -1.0604,2.024168 -0.44985,0.771171 -0.89994,1.606606 -1.34979,2.506305 -0.44985,0.835441 -0.8352,1.638499 -1.15652,2.409672 -0.32132,0.771173 -0.48214,1.349708 -0.48214,1.735296 0,0.514112 0.16082,0.9642 0.48214,1.349788 0.32132,0.449847 0.83512,0.674378 1.54203,0.674378 0.32132,0 0.73904,-0.128453 1.25315,-0.385506 0.44985,-0.321321 1.06076,-1.31757 1.83193,-2.98845 0.83544,-1.735132 1.67087,-3.727125 2.50631,-5.976379 1.22102,-1.863667 2.60262,-3.855652 4.14496,-5.97638 1.54235,-2.120725 3.14899,-4.080859 4.81986,-5.880261 1.67088,-1.799399 3.30937,-3.277595 4.91598,-4.434353 1.67088,-1.221028 3.18144,-1.831414 4.53099,-1.831414 0.70691,0 1.0604,0.353489 1.0604,1.060402 0,1.221018 -0.38586,2.859519 -1.15703,4.915977 -0.77117,2.056461 -1.57424,3.984744 -2.40967,5.784144 -1.02823,2.249254 -1.89604,4.369686 -2.60295,6.361885 -0.7069,1.927928 -1.0604,3.598793 -1.0604,5.012615 0,1.221018 0.32113,2.249125 0.96377,3.084566 0.64264,0.771173 1.6389,1.157036 2.98845,1.157036 2.4293,0 6.54887,-2.919714 12.34395,-8.733319 -0.0234,0.341474 -0.0351,0.682204 -0.0351,1.021644 0,2.249254 0.57853,4.144644 1.73529,5.686991 1.15676,1.478081 2.89185,2.217436 5.20537,2.217436 2.12072,0 4.080865,-0.610392 5.880265,-1.831412 1.86367,-1.285287 3.53453,-2.763475 5.01261,-4.434356 0,1.606614 0.44957,3.052435 1.34927,4.33772 0.89971,1.285287 2.31367,1.928048 4.24161,1.928048 1.92793,0 4.30578,-1.317374 7.13341,-3.952214 1.74898,-1.629735 3.76969,-3.64286 6.05958,-6.034773 -0.0447,0.506971 -0.0698,1.008412 -0.0698,1.503784 0,2.442045 0.610902,4.498776 1.831932,6.169649 1.15675,1.606613 3.05215,2.409671 5.68699,2.409671 2.18499,0 4.27357,-0.417713 6.26576,-1.253154 1.9922,-0.77117 3.92048,-1.831136 5.78415,-3.180683 1.86366,-1.413819 3.69483,-3.020459 5.49424,-4.819861 1.72709,-1.727092 3.4847,-3.545615 5.27099,-5.450314 0.0934,-0.06892 0.18506,-0.147333 0.27492,-0.237193 l 2.41019,-2.69906 -4.43436,11.181747 c -0.38558,0.899699 -0.8033,1.895953 -1.25315,2.988447 -0.44985,1.028232 -0.67489,1.735214 -0.67489,2.1208 0,0.835435 0.35349,1.349232 1.0604,1.542026 0.64265,0.257058 1.02799,0.386021 1.15652,0.386021 0.57838,0 1.06083,-0.417713 1.44642,-1.253154 0.44985,-0.835429 0.8352,-1.703234 1.15652,-2.602941 l 0.57826,-1.735294 c 1.34955,-3.084692 2.89197,-5.944481 4.62711,-8.579321 1.7994,-2.63484 3.56686,-4.916101 5.302,-6.844027 1.7994,-1.992199 3.43789,-3.598844 4.91597,-4.819859 1.47808,-1.221028 2.60278,-1.959867 3.37396,-2.21692 0.7069,-0.257061 1.34967,-0.385506 1.92805,-0.385506 1.15676,0 1.73529,0.674611 1.73529,2.024166 0,0.578379 -0.22504,1.606486 -0.67489,3.084565 -0.44985,1.478082 -1.22106,3.438216 -2.31356,5.880262 -1.22102,2.570572 -2.21727,4.916053 -2.98845,7.036779 -0.7069,2.05646 -1.0604,3.823922 -1.0604,5.302003 0,1.028227 0.32164,2.024481 0.96429,2.988448 0.64264,0.963967 1.60652,1.445906 2.89181,1.445906 1.09249,0 2.34564,-0.450088 3.75946,-1.349788 1.41381,-0.963967 2.89201,-2.152894 4.43435,-3.566708 1.3135,-1.208421 2.62683,-2.507374 3.94033,-3.887618 -0.0181,0.300567 -0.0289,0.600697 -0.0289,0.899687 0,2.249254 0.57854,4.144644 1.7352899,5.686991 1.15676,1.478081 2.89185,2.217436 5.20537,2.217436 2.12072,0 4.08085997,-0.610392 5.88026,-1.831412 1.86367,-1.285287 3.53454,-2.763475 5.01262,-4.434356 0,1.606614 0.44957,3.052435 1.34927,4.33772 0.8997,1.285287 2.3136701,1.928048 4.2416001,1.928048 1.92793,0 4.30578,-1.317374 7.13341,-3.952214 2.82763,-2.63484 6.36204,-6.265841 10.60349,-10.892874 0.38559,-0.385588 0.57826,-0.835676 0.57826,-1.349788 0,-0.449855 -0.19267,-0.867569 -0.57826,-1.253154 -0.32133,-0.449847 -0.73904,-0.674378 -1.25315,-0.674378 -0.25706,0 -0.4821,0.03185 -0.6749,0.09612 -0.19279,0.06427 -0.44968,0.256939 -0.77101,0.57826 -0.57838,0.642646 -1.54227,1.735489 -2.89181,3.277835 -1.34955,1.478082 -2.79589,2.988133 -4.33824,4.530474 -1.54234,1.542346 -3.05239,2.923939 -4.53047,4.144965 -1.41381,1.156761 -2.50615,1.735296 -3.27732,1.735296 -0.57838,0 -1.02847,-0.225041 -1.34979,-0.674894 -0.32132,-0.514114 -0.48162,-1.1245 -0.48162,-1.831414 0,-0.899699 0.1603,-2.024401 0.48162,-3.373953 0.38559,-1.413814 0.86753,-2.85964 1.44591,-4.337719 0.83543,-1.413815 1.67086,-2.860151 2.5063,-4.338238 0.83544,-1.478079 1.57479,-2.85968 2.21744,-4.144965 0.70691,-1.349555 1.28493,-2.538482 1.73478,-3.566708 0.51411,-1.092494 0.86761,-1.89556 1.0604,-2.409672 0.0643,-0.128534 0.12848,-0.256979 0.19275,-0.385508 0.0643,-0.192789 0.0966,-0.385464 0.0966,-0.578257 0,-0.321321 -0.16081,-0.610587 -0.48214,-0.867649 -0.25705,-0.257058 -0.51395,-0.450249 -0.77101,-0.578776 -0.19279,-0.128526 -0.80319,-0.321199 -1.83141,-0.57826 -0.96397,-0.321318 -2.21712,-0.481623 -3.75946,-0.481623 -2.95616,0 -5.9125501,0.738838 -8.8687101,2.216919 -2.8919,1.478079 -5.49428003,3.373988 -7.80779,5.687508 -1.95477,1.95476 -3.58492,4.118234 -4.89738,6.485908 -0.025,0.02291 -0.0505,0.04428 -0.0749,0.06873 -1.28529,1.413819 -2.6668899,2.924384 -4.1449699,4.530989 -1.47808,1.606614 -2.89204,3.084291 -4.2416,4.433838 -1.34955,1.349554 -2.6027,2.474256 -3.75946,3.373953 -1.15676,0.899708 -2.02404,1.34979 -2.60242,1.34979 -0.19279,0 -0.28939,-0.256892 -0.28939,-0.771014 0,-1.092488 0.38587,-2.634914 1.15703,-4.627107 0.77118,-2.056458 1.60661,-4.113189 2.50631,-6.16965 1.28529,-2.956158 2.15258,-5.20556 2.60242,-6.747907 0.51412,-1.606613 0.77153,-2.859762 0.77153,-3.759461 0,-1.735133 -0.48246,-3.116734 -1.44642,-4.144966 -0.96397,-1.028226 -2.31319,-1.542026 -4.04833,-1.542026 -0.8997,0 -1.89595,0.160306 -2.98845,0.481627 -1.09249,0.385585 -2.53831,1.285245 -4.33772,2.699059 -1.73514,1.41382 -3.53445,3.149423 -5.39812,5.205884 l 1.15652,-3.277836 3.8561,-4.434356 5.78362,-6.554639 c 1.41382,-1.606613 2.76356,-3.2774724 4.04885,-5.0126115 1.34955,-1.7993988 2.53847,-3.5344929 3.56671,-5.205366 1.09249,-1.73513697 2.024,-3.30992288 2.79518,-4.7237388 0.77117,-1.41382 1.31734,-2.57037 1.63866,-3.4700696 0.19279,-0.5783801 0.28938,-1.3172201 0.28938,-2.2169201 0,-1.28529 -0.41771,-2.47422 -1.25315,-3.566712 -0.77117,-1.0925 -1.83165,-1.63917 -3.1812,-1.63917 z m 0,3.759462 c 0.25706,0 0.41788,0.16082 0.48215,0.48215 0.12852,0.32132 0.19275,0.64295 0.19275,0.96428 0,0.44985 -0.0642,0.86756 -0.19275,1.25315 -0.25706,0.8354301 -0.96405,2.2488897 -2.12081,4.2410796 -1.09249,1.99220002 -2.69914,4.4342789 -4.81985,7.3261694 -0.89971,1.2852954 -1.89595,2.5708098 -2.98845,3.8560939 -1.0925,1.2852864 -2.28091,2.6668871 -3.56619,4.1449661 2.05645,-4.8840925 3.85577,-8.9004364 5.39812,-12.04939047 1.6066,-3.21321883 2.95583,-5.62343883 4.04833,-7.23004853 1.34955,-1.99219 2.53847,-2.98845 3.5667,-2.98845 z m -70.337822,31.329352 c 0.32132,0 0.64296,0.03185 0.96428,0.09612 0.38559,0 0.73857,0.03237 1.05989,0.09663 -0.77117,1.349555 -1.76691,3.148867 -2.98793,5.398122 -1.22103,2.249252 -2.31388,4.594738 -3.27784,7.036779 v -0.09612 c -0.64264,1.092493 -1.47808,2.345647 -2.50631,3.759459 -0.96396,1.349555 -2.05629,2.634552 -3.27732,3.85558 -1.15675,1.22102 -2.37753,2.249125 -3.66282,3.084565 -1.285295,0.771173 -2.570815,1.157036 -3.856105,1.157036 -1.02823,0 -1.79944,-0.385863 -2.31355,-1.157036 -0.51411,-0.83544 -0.77101,-1.79932 -0.77101,-2.891814 0,-2.120725 0.57853,-4.369609 1.73529,-6.74739 0.0637,-0.124058 0.13229,-0.245444 0.19792,-0.368454 0.20532,-0.227124 0.34947,-0.484828 0.42943,-0.774628 1.1187,-1.938489 2.48155,-3.743929 4.09588,-5.412074 1.927935,-2.05646 4.113115,-3.727328 6.555155,-5.012613 2.50631,-1.349547 5.04447,-2.024166 7.61504,-2.024166 z m 99.408922,0 c 0.32132,0 0.64296,0.03185 0.96428,0.09612 0.38559,0 0.73908,0.03237 1.0604,0.09663 -0.77117,1.349555 -1.76743,3.148867 -2.98845,5.398122 -1.22102,2.249252 -2.31336,4.594738 -3.2773201,7.036779 v -0.09612 c -0.64264,1.092493 -1.47808,2.345647 -2.5063,3.759459 -0.96397,1.349555 -2.05681,2.634552 -3.27784,3.85558 -1.15676,1.22102 -2.37754003,2.249125 -3.66282003,3.084565 -1.28528997,0.771173 -2.57080997,1.157036 -3.85609997,1.157036 -1.02823,0 -1.79943,-0.385863 -2.31355,-1.157036 -0.51412,-0.83544 -0.77102,-1.79932 -0.77102,-2.891814 0,-2.120725 0.57854,-4.369609 1.7353,-6.74739 1.22102,-2.377782 2.79529,-4.562957 4.72321997,-6.555156 1.92794003,-2.05646 4.11311003,-3.727328 6.55516003,-5.012613 2.50631,-1.349547 5.0444601,-2.024166 7.6150401,-2.024166 z"
       style="font-style:normal;font-variant:normal;font-weight:bold;font-stretch:normal;font-size:96.39656067px;line-height:1.25;font-family:'Learning Curve';-inkscape-font-specification:'Learning Curve, Bold';font-variant-ligatures:normal;font-variant-caps:normal;font-variant-numeric:normal;font-feature-settings:normal;text-align:start;letter-spacing:0px;word-spacing:0px;writing-mode:lr-tb;text-anchor:start;fill:#ffffff;fill-opacity:1;stroke:none;stroke-width:2.40991378" />
  </g>
</svg>
